<svg width="18" height="19" viewBox="0 0 18 19" fill="none" xmlns="http://www.w3.org/2000/svg">
<path d="M9.67817 18.6519C9.23692 18.6519 8.79568 18.6519 8.35885 18.6519C8.11175 18.6166 7.86466 18.5901 7.62197 18.5504C5.44665 18.1798 3.58902 17.2002 2.19028 15.4882C-0.126245 12.651 -0.629261 9.46964 0.795952 6.10296C2.49915 2.08324 6.72184 -0.00825053 10.9887 0.913946C14.4083 1.65082 17.1837 4.49242 17.8235 7.91205C17.8897 8.27828 17.9426 8.64893 18 9.01516C18 9.4564 18 9.89764 18 10.3345C17.9647 10.5816 17.9382 10.8287 17.8985 11.0713C17.5235 13.2731 16.4998 15.1043 14.7966 16.5516C13.6935 17.487 12.4315 18.118 11.0195 18.4269C10.5783 18.5239 10.1238 18.5769 9.67817 18.6519ZM6.7439 12.3421C4.55975 10.7934 4.4715 7.90323 6.04674 6.20886C7.56903 4.57185 10.1591 4.47477 11.7961 6.01471C12.5727 6.74276 13.0051 7.65172 13.0625 8.71511C13.1419 10.2286 12.5198 11.4243 11.2931 12.3377C12.7713 12.876 13.9273 13.7938 14.7878 15.0822C17.6647 12.0597 17.7529 7.03839 14.4524 3.9144C11.1828 0.816873 5.95408 1.05514 2.98452 4.54979C0.160563 7.87234 0.725353 12.5275 3.25809 15.0778C3.67727 14.4469 4.17587 13.8953 4.76714 13.432C5.36281 12.9643 6.01585 12.6069 6.7439 12.3421ZM4.04791 15.8059C6.86304 18.2195 11.324 18.1356 13.9891 15.7971C12.7757 13.9703 11.0857 12.9819 8.87952 13.0261C6.79244 13.0746 5.19073 14.063 4.04791 15.8059ZM12.0123 8.96662C12.0123 7.32079 10.6577 5.97059 9.0163 5.97059C7.37929 5.975 6.0335 7.31638 6.02909 8.95339C6.02026 10.5948 7.37488 11.9538 9.0163 11.9582C10.6533 11.9671 12.0123 10.6125 12.0123 8.96662Z" fill="#214336"/>
</svg>
