<svg width="128" height="38" viewBox="0 0 128 38" fill="none" xmlns="http://www.w3.org/2000/svg">
<g id="Group">
<path id="Vector" d="M127.154 33.4487C127.154 33.926 127.06 34.3987 126.878 34.8396C126.695 35.2806 126.427 35.6812 126.089 36.0185C125.751 36.3559 125.35 36.6233 124.909 36.8057C124.468 36.988 123.995 37.0816 123.517 37.0811H4.48649C3.52174 37.0821 2.59609 36.7 1.91311 36.0188C1.23013 35.3376 0.84574 34.4131 0.844482 33.4487V4.48139C0.845739 3.51648 1.22997 2.59152 1.91282 1.90958C2.59566 1.22765 3.5213 0.844489 4.48649 0.844238H123.516C123.994 0.844238 124.467 0.938323 124.908 1.12112C125.35 1.30391 125.751 1.57184 126.089 1.90959C126.426 2.24735 126.694 2.64831 126.877 3.08958C127.06 3.53086 127.154 4.0038 127.154 4.48139L127.154 33.4487Z" fill="white"/>
<path id="Vector_2" d="M123.514 37.926H4.48622C3.29779 37.9257 2.158 37.4541 1.31694 36.6147C0.475883 35.7753 0.00226125 34.6366 0 33.4485L0 4.48218C0.00175811 3.29348 0.475067 2.15401 1.3161 1.31374C2.15713 0.473464 3.2972 0.00100331 4.48622 0L123.513 0C124.702 0.00150394 125.841 0.474125 126.682 1.31429C127.523 2.15446 127.997 3.29364 127.999 4.48218V33.4485C128.001 35.9182 125.985 37.926 123.514 37.926Z" fill="#A6A6A6"/>
<path id="Vector_3" d="M127.151 33.4487C127.151 33.926 127.057 34.3987 126.874 34.8396C126.692 35.2806 126.424 35.6812 126.086 36.0185C125.748 36.3559 125.347 36.6233 124.906 36.8057C124.465 36.988 123.992 37.0816 123.514 37.0811H4.48664C3.52191 37.0821 2.59629 36.7 1.91332 36.0188C1.23036 35.3376 0.845984 34.4131 0.844727 33.4487V4.48139C0.845983 3.51648 1.23021 2.59152 1.91304 1.90958C2.59586 1.22765 3.52148 0.844489 4.48664 0.844238H123.513C123.991 0.844238 124.464 0.938323 124.905 1.12112C125.347 1.30391 125.748 1.57184 126.085 1.90959C126.423 2.24735 126.691 2.64831 126.874 3.08958C127.057 3.53086 127.151 4.0038 127.15 4.48139L127.151 33.4487Z" fill="black"/>
<path id="Vector_4" d="M28.5813 18.7631C28.5538 15.7063 31.0848 14.2192 31.2006 14.15C29.7672 12.0607 27.5454 11.7752 26.7646 11.7524C24.8986 11.5561 23.0886 12.8687 22.138 12.8687C21.1685 12.8687 19.7047 11.7714 18.1271 11.8036C16.097 11.8349 14.1977 13.01 13.1561 14.8348C11.0064 18.5554 12.6097 24.023 14.6692 27.0304C15.6995 28.5042 16.9033 30.1478 18.479 30.0899C20.0206 30.0273 20.5965 29.1083 22.4568 29.1083C24.3 29.1083 24.8408 30.0899 26.4478 30.0529C28.1023 30.0273 29.1439 28.5734 30.1381 27.0873C31.3287 25.4 31.8068 23.7365 31.8258 23.6512C31.7878 23.6379 28.6136 22.4258 28.5813 18.7631ZM25.5456 9.77404C26.3747 8.73743 26.942 7.32715 26.7846 5.896C25.5845 5.94911 24.0837 6.72585 23.2195 7.7397C22.4549 8.63311 21.7718 10.0975 21.9483 11.4745C23.2963 11.5751 24.6804 10.7945 25.5456 9.77404Z" fill="white"/>
<path id="Vector_5" d="M123.514 0H59.759L84.7306 37.926H123.514C124.702 37.925 125.842 37.4528 126.683 36.6129C127.524 35.773 127.998 34.634 128 33.4457V4.48218C127.998 3.29356 127.525 2.15423 126.684 1.31401C125.843 0.473795 124.703 0.00125372 123.514 0Z" fill="url(#paint0_linear_54_535)"/>
<g id="Group_2">
<path id="Vector_6" d="M50.9099 29.8786H48.7555L47.5754 26.1713H43.4734L42.3492 29.8786H40.2517L44.3167 17.2571H46.8269L50.9099 29.8786ZM47.2196 24.6159L46.1524 21.3201C46.0395 20.9835 45.827 20.1906 45.5158 18.9425H45.4779C45.3527 19.4793 45.1525 20.2721 44.8783 21.3201L43.8291 24.6159H47.2196ZM61.3433 25.2162C61.3433 26.764 60.923 27.9875 60.0816 28.8856C59.3283 29.6851 58.392 30.0844 57.2754 30.0844C56.0697 30.0844 55.2026 29.6548 54.6761 28.7936V33.5688H52.6536V23.7689C52.6536 22.7968 52.6279 21.8 52.5786 20.7776H54.3573L54.4702 22.2202H54.5082C55.1827 21.1333 56.2063 20.5899 57.58 20.5899C58.6538 20.5899 59.5503 21.0138 60.2675 21.8626C60.9837 22.7134 61.3433 23.8306 61.3433 25.2162ZM59.2828 25.2902C59.2828 24.4044 59.0836 23.6741 58.6832 23.0984C58.2459 22.5 57.6587 22.2003 56.9225 22.2003C56.4235 22.2003 55.9701 22.3672 55.565 22.6963C55.159 23.0282 54.8933 23.4616 54.7691 23.9984C54.7136 24.1992 54.6821 24.4058 54.6751 24.614V26.1324C54.6751 26.7934 54.8782 27.352 55.2842 27.8092C55.6902 28.2644 56.2177 28.493 56.8666 28.493C57.6283 28.493 58.2212 28.198 58.6453 27.6128C59.0703 27.0258 59.2828 26.2519 59.2828 25.2902ZM71.8137 25.2162C71.8137 26.764 71.3934 27.9875 70.5519 28.8856C69.7978 29.6851 68.8624 30.0844 67.7449 30.0844C66.5391 30.0844 65.672 29.6548 65.1455 28.7936V33.5688H63.123V23.7689C63.123 22.7968 63.0974 21.8 63.048 20.7776H64.8268L64.9397 22.2202H64.9776C65.6512 21.1333 66.6748 20.5899 68.0494 20.5899C69.1223 20.5899 70.0188 21.0138 70.7379 21.8626C71.4532 22.7134 71.8137 23.8306 71.8137 25.2162ZM69.7522 25.2902C69.7522 24.4044 69.552 23.6741 69.1517 23.0984C68.7144 22.5 68.1291 22.2003 67.3929 22.2003C66.8939 22.2003 66.4404 22.3672 66.0335 22.6963C65.6274 23.0282 65.3628 23.4616 65.2385 23.9984C65.1768 24.2488 65.1436 24.4527 65.1436 24.614V26.1324C65.1436 26.7934 65.3476 27.352 65.7517 27.8092C66.1577 28.2634 66.6852 28.493 67.336 28.493C68.0987 28.493 68.6916 28.198 69.1147 27.6128C69.5397 27.0258 69.7522 26.2519 69.7522 25.2902ZM83.5201 26.3382C83.5201 27.4127 83.1445 28.2862 82.3979 28.9605C81.5763 29.6965 80.4294 30.0654 78.959 30.0654C77.6005 30.0654 76.5114 29.8037 75.6899 29.2792L76.1576 27.5939C77.0446 28.1193 78.0189 28.381 79.0795 28.381C79.8422 28.381 80.4351 28.2084 80.8582 27.8661C81.2822 27.5227 81.4966 27.0637 81.4966 26.4909C81.4966 25.9778 81.3192 25.5481 80.9711 25.1982C80.621 24.8492 80.0423 24.5239 79.2293 24.2251C77.019 23.4009 75.9128 22.1955 75.9128 20.6098C75.9128 19.5741 76.3037 18.7262 77.0835 18.0633C77.8633 17.4013 78.8973 17.0703 80.1837 17.0703C81.3325 17.0703 82.2897 17.2704 83.0496 17.6697L82.5421 19.318C81.8268 18.9311 81.0195 18.7376 80.1163 18.7376C79.403 18.7376 78.8432 18.9131 78.4429 19.2621C78.1061 19.5741 77.9354 19.9544 77.9354 20.4059C77.9354 20.9038 78.1298 21.3173 78.5169 21.6416C78.8527 21.9404 79.4656 22.2657 80.3516 22.6147C81.4388 23.0529 82.2375 23.5631 82.7489 24.1492C83.264 24.7354 83.5201 25.4666 83.5201 26.3382ZM90.2243 22.2951H87.995V26.7137C87.995 27.8376 88.3877 28.3981 89.1751 28.3981C89.5365 28.3981 89.8363 28.3678 90.0735 28.3042L90.1295 29.8397C89.731 29.9886 89.2064 30.0635 88.5566 30.0635C87.7578 30.0635 87.1336 29.8198 86.683 29.3323C86.2343 28.8448 86.0085 28.0282 86.0085 26.8788V22.2913H84.6804V20.7739H86.0085V19.1075L87.995 18.5081V20.7739H90.2243V22.2951ZM100.263 25.2532C100.263 26.6521 99.8627 27.8006 99.064 28.6988C98.2282 29.6235 97.1164 30.0844 95.7304 30.0844C94.3927 30.0844 93.3293 29.6415 92.5362 28.7566C91.7431 27.8699 91.3466 26.7526 91.3466 25.4049C91.3466 23.9947 91.7564 22.8395 92.5732 21.9413C93.3919 21.0423 94.4942 20.5927 95.8802 20.5927C97.216 20.5927 98.2889 21.0366 99.1009 21.9224C99.8769 22.7816 100.263 23.8913 100.263 25.2532ZM98.1665 25.2997C98.1665 24.466 97.9863 23.7509 97.6248 23.1525C97.2008 22.4298 96.5936 22.0684 95.8072 22.0684C94.997 22.0684 94.3757 22.4298 93.9526 23.1525C93.5902 23.7509 93.4099 24.4783 93.4099 25.3376C93.4099 26.1722 93.5902 26.8892 93.9526 27.4857C94.3899 28.2084 94.9999 28.5698 95.7901 28.5698C96.5633 28.5698 97.1695 28.2008 97.6078 27.4677C97.9796 26.8551 98.1665 26.1352 98.1665 25.2997ZM106.84 22.5559C106.63 22.5179 106.416 22.4992 106.203 22.5C105.491 22.5 104.941 22.7674 104.554 23.3061C104.218 23.7803 104.049 24.3797 104.049 25.1033V29.8786H102.027V23.6437C102.028 22.6884 102.009 21.7331 101.968 20.7786H103.729L103.803 22.5199H103.859C104.074 21.9214 104.41 21.4387 104.871 21.0773C105.293 20.7616 105.805 20.5906 106.333 20.5899C106.519 20.5899 106.688 20.6031 106.838 20.6268L106.84 22.5559ZM115.886 24.8975C115.891 25.2049 115.866 25.5121 115.812 25.8147H109.744C109.767 26.7137 110.061 27.4023 110.624 27.8765C111.136 28.2995 111.797 28.5119 112.609 28.5119C113.507 28.5119 114.327 28.3697 115.064 28.0823L115.381 29.485C114.52 29.8606 113.503 30.0474 112.329 30.0474C110.917 30.0474 109.809 29.632 109.003 28.8031C108.199 27.9732 107.795 26.8579 107.795 25.4609C107.795 24.0895 108.17 22.9467 108.921 22.0352C109.706 21.0622 110.768 20.5756 112.103 20.5756C113.415 20.5756 114.409 21.0622 115.083 22.0352C115.617 22.8063 115.886 23.7623 115.886 24.8975ZM113.957 24.3731C113.971 23.7727 113.838 23.2558 113.564 22.8186C113.214 22.2553 112.675 21.9745 111.953 21.9745C111.292 21.9745 110.753 22.2486 110.344 22.7987C110.007 23.2359 109.807 23.7613 109.745 24.3712L113.957 24.3731Z" fill="white"/>
</g>
<g id="Group_3">
<path id="Vector_7" d="M42.8901 12.7944C42.3275 12.7944 41.8409 12.7669 41.4358 12.7204V6.61838C42.0023 6.53088 42.5749 6.48776 43.1481 6.48939C45.4676 6.48939 46.5358 7.63033 46.5358 9.49016C46.5358 11.6355 45.2741 12.7944 42.8901 12.7944ZM43.2297 7.27183C42.9166 7.27183 42.6501 7.2908 42.429 7.33632V11.975C42.5486 11.994 42.7781 12.0025 43.1007 12.0025C44.6204 12.0025 45.4856 11.1376 45.4856 9.51767C45.4856 8.07324 44.703 7.27183 43.2297 7.27183ZM49.8646 12.8409C48.5574 12.8409 47.7102 11.865 47.7102 10.5401C47.7102 9.15917 48.5754 8.17472 49.9386 8.17472C51.2269 8.17472 52.093 9.10416 52.093 10.467C52.093 11.865 51.2004 12.8409 49.8646 12.8409ZM49.9026 8.9012C49.1845 8.9012 48.7244 9.57267 48.7244 10.5116C48.7244 11.4325 49.1939 12.104 49.8931 12.104C50.5923 12.104 51.0619 11.386 51.0619 10.4926C51.0619 9.58216 50.6018 8.9012 49.9026 8.9012ZM59.5476 8.26671L58.1483 12.7394H57.2367L56.6571 10.7971C56.5129 10.322 56.3929 9.83987 56.2975 9.35264H56.2785C56.2055 9.84013 56.067 10.3286 55.9199 10.7971L55.3033 12.7394H54.3822L53.0654 8.26671H54.0871L54.5937 10.393C54.7132 10.8995 54.8138 11.3775 54.8973 11.8289H54.9163C54.9893 11.4524 55.1088 10.982 55.2843 10.4025L55.9199 8.26766H56.7301L57.3382 10.357C57.4852 10.8635 57.6048 11.3604 57.6977 11.8299H57.7243C57.7888 11.3699 57.8903 10.8815 58.0279 10.357L58.5715 8.26766L59.5476 8.26671ZM64.6989 12.7394H63.7047V10.1711C63.7047 9.38015 63.4011 8.98371 62.8025 8.98371C62.2134 8.98371 61.8083 9.49016 61.8083 10.0791V12.7394H60.8141V9.54517C60.8141 9.14968 60.8046 8.72574 60.7771 8.26577H61.6518L61.6982 8.95621H61.7258C61.9933 8.47821 62.5359 8.17472 63.144 8.17472C64.0832 8.17472 64.6998 8.89266 64.6998 10.0611L64.6989 12.7394ZM67.4405 12.7394H66.4453V6.21436H67.4405V12.7394ZM71.0653 12.8409C69.759 12.8409 68.9109 11.865 68.9109 10.5401C68.9109 9.15917 69.7761 8.17472 71.1384 8.17472C72.4276 8.17472 73.2928 9.10416 73.2928 10.467C73.2937 11.865 72.4001 12.8409 71.0653 12.8409ZM71.1023 8.9012C70.3842 8.9012 69.9241 9.57267 69.9241 10.5116C69.9241 11.4325 70.3946 12.104 71.0919 12.104C71.792 12.104 72.2606 11.386 72.2606 10.4926C72.2616 9.58216 71.8024 8.9012 71.1023 8.9012ZM77.2126 12.7394L77.1405 12.2244H77.114C76.8104 12.6389 76.3674 12.8409 75.8058 12.8409C75.0042 12.8409 74.435 12.2794 74.435 11.5245C74.435 10.4206 75.3922 9.84961 77.0495 9.84961V9.7671C77.0495 9.17814 76.7374 8.88318 76.1207 8.88318C75.6796 8.88318 75.2926 8.99414 74.952 9.21512L74.7499 8.56167C75.1635 8.3037 75.6796 8.17472 76.2858 8.17472C77.4546 8.17472 78.0446 8.79118 78.0446 10.0251V11.6725C78.0446 12.1239 78.0645 12.4739 78.1091 12.7404L77.2126 12.7394ZM77.076 10.5116C75.9718 10.5116 75.4178 10.7791 75.4178 11.4135C75.4178 11.883 75.7033 12.1125 76.0999 12.1125C76.6055 12.1125 77.076 11.7265 77.076 11.202V10.5116ZM82.8724 12.7394L82.8259 12.0215H82.7984C82.5128 12.564 82.0328 12.8409 81.3621 12.8409C80.2835 12.8409 79.4847 11.8925 79.4847 10.5581C79.4847 9.15917 80.3129 8.17377 81.4437 8.17377C82.0423 8.17377 82.4663 8.37578 82.7054 8.7817H82.7253V6.21436H83.7205V11.534C83.7205 11.9665 83.7309 12.3714 83.7575 12.7394H82.8724ZM82.7253 10.1076C82.7253 9.48163 82.3107 8.94767 81.678 8.94767C80.9409 8.94767 80.4903 9.60113 80.4903 10.5211C80.4903 11.423 80.958 12.0404 81.6581 12.0404C82.2832 12.0404 82.7253 11.497 82.7253 10.853V10.1076ZM90.03 12.8409C88.7237 12.8409 87.8765 11.865 87.8765 10.5401C87.8765 9.15917 88.7417 8.17472 90.104 8.17472C91.3932 8.17472 92.2584 9.10416 92.2584 10.467C92.2594 11.865 91.3667 12.8409 90.03 12.8409ZM90.067 8.9012C89.3498 8.9012 88.8897 9.57267 88.8897 10.5116C88.8897 11.4325 89.3593 12.104 90.0575 12.104C90.7576 12.104 91.2263 11.386 91.2263 10.4926C91.2282 9.58216 90.7681 8.9012 90.067 8.9012ZM97.6051 12.7394H96.6099V10.1711C96.6099 9.38015 96.3063 8.98371 95.7077 8.98371C95.1186 8.98371 94.7145 9.49016 94.7145 10.0791V12.7394H93.7193V9.54517C93.7193 9.14968 93.7099 8.72574 93.6823 8.26577H94.557L94.6035 8.95621H94.631C94.8976 8.47821 95.4412 8.17377 96.0483 8.17377C96.9875 8.17377 97.6051 8.89172 97.6051 10.0602V12.7394ZM104.294 9.01216H103.2V11.184C103.2 11.7369 103.392 12.0129 103.779 12.0129C103.954 12.0129 104.101 11.994 104.22 11.9665L104.248 12.7214C104.055 12.7954 103.797 12.8324 103.476 12.8324C102.693 12.8324 102.224 12.3999 102.224 11.2675V9.01216H101.571V8.26671H102.224V7.44729L103.2 7.15233V8.26577H104.294V9.01216ZM109.557 12.7394H108.564V10.1901C108.564 9.38963 108.261 8.98466 107.662 8.98466C107.147 8.98466 106.667 9.33462 106.667 10.0431V12.7394H105.673V6.21436H106.667V8.9012H106.687C107 8.41372 107.453 8.17377 108.032 8.17377C108.979 8.17377 109.557 8.90974 109.557 10.0791V12.7394ZM114.949 10.7421H111.966C111.985 11.589 112.546 12.067 113.376 12.067C113.817 12.067 114.223 11.993 114.581 11.8555L114.736 12.5459C114.313 12.7299 113.815 12.8219 113.235 12.8219C111.836 12.8219 111.008 11.938 111.008 10.5676C111.008 9.19616 111.856 8.16523 113.123 8.16523C114.266 8.16523 114.984 9.01216 114.984 10.2916C114.99 10.4426 114.979 10.5938 114.949 10.7421ZM114.038 10.0336C114.038 9.34316 113.69 8.85568 113.054 8.85568C112.483 8.85568 112.031 9.35264 111.967 10.0336H114.038Z" fill="white"/>
</g>
</g>
<defs>
<linearGradient id="paint0_linear_54_535" x1="93.8785" y1="38.0267" x2="93.8785" y2="-98.7527" gradientUnits="userSpaceOnUse">
<stop stop-color="#1A1A1A" stop-opacity="0.1"/>
<stop offset="0.123" stop-color="#212121" stop-opacity="0.151"/>
<stop offset="0.308" stop-color="#353535" stop-opacity="0.227"/>
<stop offset="0.532" stop-color="#575757" stop-opacity="0.318"/>
<stop offset="0.783" stop-color="#858585" stop-opacity="0.421"/>
<stop offset="1" stop-color="#B3B3B3" stop-opacity="0.51"/>
</linearGradient>
</defs>
</svg>
