<svg width="129" height="38" viewBox="0 0 129 38" fill="none" xmlns="http://www.w3.org/2000/svg">
<g id="Group">
<path id="Vector" d="M128.021 33.4487C128.021 33.926 127.927 34.3987 127.745 34.8396C127.562 35.2806 127.294 35.6812 126.956 36.0185C126.618 36.3559 126.217 36.6233 125.776 36.8057C125.335 36.988 124.862 37.0816 124.384 37.0811H5.35675C4.39203 37.0821 3.4664 36.7 2.78344 36.0188C2.10048 35.3376 1.7161 34.4131 1.71484 33.4487V4.48139C1.7161 3.51648 2.10033 2.59152 2.78315 1.90958C3.46598 1.22765 4.39159 0.844489 5.35675 0.844238H124.383C124.861 0.844238 125.334 0.938323 125.775 1.12112C126.217 1.30391 126.618 1.57184 126.956 1.90959C127.293 2.24735 127.561 2.64831 127.744 3.08958C127.927 3.53086 128.021 4.0038 128.021 4.48139L128.021 33.4487Z" fill="white"/>
<path id="Vector_2" d="M124.384 37.926H5.35634C4.16791 37.9257 3.02811 37.4541 2.18706 36.6147C1.346 35.7753 0.872378 34.6366 0.870117 33.4485L0.870117 4.48218C0.871875 3.29348 1.34518 2.15401 2.18621 1.31374C3.02724 0.473464 4.16732 0.00100331 5.35634 0L124.383 0C125.572 0.00150394 126.712 0.474125 127.553 1.31429C128.393 2.15446 128.867 3.29364 128.869 4.48218V33.4485C128.871 35.9182 126.855 37.926 124.384 37.926Z" fill="black"/>
<path id="Vector_3" d="M128.021 33.4487C128.021 33.926 127.927 34.3987 127.745 34.8396C127.562 35.2806 127.294 35.6812 126.956 36.0185C126.618 36.3559 126.217 36.6233 125.776 36.8057C125.335 36.988 124.862 37.0816 124.384 37.0811H5.35675C4.39203 37.0821 3.4664 36.7 2.78344 36.0188C2.10048 35.3376 1.7161 34.4131 1.71484 33.4487V4.48139C1.7161 3.51648 2.10033 2.59152 2.78315 1.90958C3.46598 1.22765 4.39159 0.844489 5.35675 0.844238H124.383C124.861 0.844238 125.334 0.938323 125.775 1.12112C126.217 1.30391 126.618 1.57184 126.956 1.90959C127.293 2.24735 127.561 2.64831 127.744 3.08958C127.927 3.53086 128.021 4.0038 128.021 4.48139L128.021 33.4487Z" fill="black"/>
<path id="Vector_4" d="M29.4519 18.7631C29.4244 15.7063 31.9555 14.2192 32.0712 14.15C30.6378 12.0607 28.416 11.7752 27.6353 11.7524C25.7692 11.5561 23.9592 12.8687 23.0086 12.8687C22.0391 12.8687 20.5753 11.7714 18.9977 11.8036C16.9676 11.8349 15.0683 13.01 14.0267 14.8348C11.877 18.5554 13.4803 24.023 15.5398 27.0304C16.5701 28.5042 17.7739 30.1478 19.3496 30.0899C20.8912 30.0273 21.4671 29.1083 23.3274 29.1083C25.1706 29.1083 25.7114 30.0899 27.3184 30.0529C28.9729 30.0273 30.0145 28.5734 31.0087 27.0873C32.1993 25.4 32.6774 23.7365 32.6964 23.6512C32.6584 23.6379 29.4842 22.4258 29.4519 18.7631ZM26.4162 9.77404C27.2454 8.73743 27.8126 7.32715 27.6552 5.896C26.4551 5.94911 24.9543 6.72585 24.0901 7.7397C23.3255 8.63311 22.6424 10.0975 22.8189 11.4745C24.1669 11.5751 25.551 10.7945 26.4162 9.77404Z" fill="white"/>
<path id="Vector_5" d="M124.384 0H60.6289L85.6005 37.926H124.384C125.572 37.925 126.712 37.4528 127.553 36.6129C128.394 35.773 128.868 34.634 128.87 33.4457V4.48218C128.868 3.29356 128.394 2.15423 127.554 1.31401C126.713 0.473795 125.573 0.00125372 124.384 0Z" fill="url(#paint0_linear_135_865)"/>
<g id="Group_2">
<path id="Vector_6" d="M51.7803 29.8786H49.6259L48.4457 26.1713H44.3437L43.2196 29.8786H41.1221L45.1871 17.2571H47.6972L51.7803 29.8786ZM48.09 24.6159L47.0227 21.3201C46.9099 20.9835 46.6974 20.1906 46.3862 18.9425H46.3482C46.223 19.4793 46.0229 20.2721 45.7487 21.3201L44.6995 24.6159H48.09ZM62.2137 25.2162C62.2137 26.764 61.7934 27.9875 60.9519 28.8856C60.1987 29.6851 59.2624 30.0844 58.1458 30.0844C56.94 30.0844 56.073 29.6548 55.5465 28.7936V33.5688H53.5239V23.7689C53.5239 22.7968 53.4983 21.8 53.449 20.7776H55.2277L55.3406 22.2202H55.3785C56.053 21.1333 57.0767 20.5899 58.4503 20.5899C59.5242 20.5899 60.4207 21.0138 61.1379 21.8626C61.8541 22.7134 62.2137 23.8306 62.2137 25.2162ZM60.1532 25.2902C60.1532 24.4044 59.9539 23.6741 59.5536 23.0984C59.1163 22.5 58.529 22.2003 57.7929 22.2003C57.2939 22.2003 56.8404 22.3672 56.4354 22.6963C56.0293 23.0282 55.7637 23.4616 55.6394 23.9984C55.584 24.1992 55.5524 24.4058 55.5455 24.614V26.1324C55.5455 26.7934 55.7485 27.352 56.1546 27.8092C56.5606 28.2644 57.088 28.493 57.7369 28.493C58.4987 28.493 59.0916 28.198 59.5157 27.6128C59.9407 27.0258 60.1532 26.2519 60.1532 25.2902ZM72.684 25.2162C72.684 26.764 72.2638 27.9875 71.4223 28.8856C70.6681 29.6851 69.7327 30.0844 68.6152 30.0844C67.4095 30.0844 66.5424 29.6548 66.0159 28.7936V33.5688H63.9933V23.7689C63.9933 22.7968 63.9677 21.8 63.9184 20.7776H65.6971L65.81 22.2202H65.848C66.5215 21.1333 67.5451 20.5899 68.9197 20.5899C69.9927 20.5899 70.8892 21.0138 71.6082 21.8626C72.3235 22.7134 72.684 23.8306 72.684 25.2162ZM70.6226 25.2902C70.6226 24.4044 70.4224 23.6741 70.0221 23.0984C69.5847 22.5 68.9994 22.2003 68.2633 22.2003C67.7643 22.2003 67.3108 22.3672 66.9038 22.6963C66.4978 23.0282 66.2331 23.4616 66.1089 23.9984C66.0472 24.2488 66.014 24.4527 66.014 24.614V26.1324C66.014 26.7934 66.2179 27.352 66.6221 27.8092C67.0281 28.2634 67.5556 28.493 68.2063 28.493C68.9691 28.493 69.562 28.198 69.9851 27.6128C70.4101 27.0258 70.6226 26.2519 70.6226 25.2902ZM84.3905 26.3382C84.3905 27.4127 84.0148 28.2862 83.2682 28.9605C82.4467 29.6965 81.2998 30.0654 79.8293 30.0654C78.4709 30.0654 77.3818 29.8037 76.5603 29.2792L77.0279 27.5939C77.9149 28.1193 78.8892 28.381 79.9498 28.381C80.7125 28.381 81.3055 28.2084 81.7286 27.8661C82.1526 27.5227 82.367 27.0637 82.367 26.4909C82.367 25.9778 82.1896 25.5481 81.8414 25.1982C81.4914 24.8492 80.9127 24.5239 80.0997 24.2251C77.8893 23.4009 76.7832 22.1955 76.7832 20.6098C76.7832 19.5741 77.174 18.7262 77.9538 18.0633C78.7336 17.4013 79.7677 17.0703 81.0541 17.0703C82.2029 17.0703 83.1601 17.2704 83.92 17.6697L83.4124 19.318C82.6971 18.9311 81.8898 18.7376 80.9867 18.7376C80.2733 18.7376 79.7136 18.9131 79.3133 19.2621C78.9765 19.5741 78.8057 19.9544 78.8057 20.4059C78.8057 20.9038 79.0002 21.3173 79.3873 21.6416C79.7231 21.9404 80.3359 22.2657 81.222 22.6147C82.3091 23.0529 83.1079 23.5631 83.6192 24.1492C84.1344 24.7354 84.3905 25.4666 84.3905 26.3382ZM91.0947 22.2951H88.8653V26.7137C88.8653 27.8376 89.2581 28.3981 90.0455 28.3981C90.4069 28.3981 90.7067 28.3678 90.9438 28.3042L90.9998 29.8397C90.6014 29.9886 90.0768 30.0635 89.4269 30.0635C88.6282 30.0635 88.0039 29.8198 87.5533 29.3323C87.1046 28.8448 86.8788 28.0282 86.8788 26.8788V22.2913H85.5507V20.7739H86.8788V19.1075L88.8653 18.5081V20.7739H91.0947V22.2951ZM101.133 25.2532C101.133 26.6521 100.733 27.8006 99.9343 28.6988C99.0985 29.6235 97.9867 30.0844 96.6007 30.0844C95.2631 30.0844 94.1997 29.6415 93.4066 28.7566C92.6135 27.8699 92.217 26.7526 92.217 25.4049C92.217 23.9947 92.6268 22.8395 93.4436 21.9413C94.2623 21.0423 95.3646 20.5927 96.7506 20.5927C98.0863 20.5927 99.1593 21.0366 99.9713 21.9224C100.747 22.7816 101.133 23.8913 101.133 25.2532ZM99.0369 25.2997C99.0369 24.466 98.8566 23.7509 98.4952 23.1525C98.0711 22.4298 97.464 22.0684 96.6776 22.0684C95.8674 22.0684 95.246 22.4298 94.8229 23.1525C94.4605 23.7509 94.2803 24.4783 94.2803 25.3376C94.2803 26.1722 94.4605 26.8892 94.8229 27.4857C95.2603 28.2084 95.8702 28.5698 96.6605 28.5698C97.4336 28.5698 98.0398 28.2008 98.4781 27.4677C98.85 26.8551 99.0369 26.1352 99.0369 25.2997ZM107.71 22.5559C107.5 22.5179 107.287 22.4992 107.073 22.5C106.361 22.5 105.811 22.7674 105.424 23.3061C105.088 23.7803 104.92 24.3797 104.92 25.1033V29.8786H102.897V23.6437C102.899 22.6884 102.879 21.7331 102.838 20.7786H104.6L104.674 22.5199H104.73C104.944 21.9214 105.28 21.4387 105.741 21.0773C106.163 20.7616 106.676 20.5906 107.203 20.5899C107.39 20.5899 107.559 20.6031 107.709 20.6268L107.71 22.5559ZM116.756 24.8975C116.761 25.2049 116.736 25.5121 116.682 25.8147H110.614C110.637 26.7137 110.931 27.4023 111.495 27.8765C112.006 28.2995 112.667 28.5119 113.479 28.5119C114.378 28.5119 115.197 28.3697 115.934 28.0823L116.251 29.485C115.39 29.8606 114.373 30.0474 113.199 30.0474C111.788 30.0474 110.68 29.632 109.873 28.8031C109.069 27.9732 108.666 26.8579 108.666 25.4609C108.666 24.0895 109.041 22.9467 109.791 22.0352C110.576 21.0622 111.638 20.5756 112.974 20.5756C114.286 20.5756 115.279 21.0622 115.953 22.0352C116.487 22.8063 116.756 23.7623 116.756 24.8975ZM114.827 24.3731C114.842 23.7727 114.709 23.2558 114.435 22.8186C114.085 22.2553 113.546 21.9745 112.824 21.9745C112.163 21.9745 111.624 22.2486 111.214 22.7987C110.877 23.2359 110.677 23.7613 110.615 24.3712L114.827 24.3731Z" fill="white"/>
</g>
<g id="Group_3">
<path id="Vector_7" d="M43.76 12.7944C43.1974 12.7944 42.7107 12.7669 42.3057 12.7204V6.61838C42.8722 6.53088 43.4447 6.48776 44.018 6.48939C46.3375 6.48939 47.4057 7.63033 47.4057 9.49016C47.4057 11.6355 46.1439 12.7944 43.76 12.7944ZM44.0996 7.27183C43.7865 7.27183 43.5199 7.2908 43.2989 7.33632V11.975C43.4184 11.994 43.648 12.0025 43.9706 12.0025C45.4903 12.0025 46.3555 11.1376 46.3555 9.51767C46.3555 8.07324 45.5729 7.27183 44.0996 7.27183ZM50.7345 12.8409C49.4273 12.8409 48.5801 11.865 48.5801 10.5401C48.5801 9.15917 49.4453 8.17472 50.8085 8.17472C52.0968 8.17472 52.9629 9.10416 52.9629 10.467C52.9629 11.865 52.0702 12.8409 50.7345 12.8409ZM50.7725 8.9012C50.0543 8.9012 49.5942 9.57267 49.5942 10.5116C49.5942 11.4325 50.0638 12.104 50.763 12.104C51.4621 12.104 51.9317 11.386 51.9317 10.4926C51.9317 9.58216 51.4716 8.9012 50.7725 8.9012ZM60.4175 8.26671L59.0182 12.7394H58.1066L57.5269 10.7971C57.3828 10.322 57.2628 9.83987 57.1674 9.35264H57.1484C57.0754 9.84013 56.9369 10.3286 56.7898 10.7971L56.1732 12.7394H55.252L53.9353 8.26671H54.957L55.4636 10.393C55.5831 10.8995 55.6837 11.3775 55.7672 11.8289H55.7861C55.8592 11.4524 55.9787 10.982 56.1542 10.4025L56.7898 8.26766H57.6L58.2081 10.357C58.3551 10.8635 58.4746 11.3604 58.5676 11.8299H58.5942C58.6587 11.3699 58.7602 10.8815 58.8977 10.357L59.4413 8.26766L60.4175 8.26671ZM65.5687 12.7394H64.5745V10.1711C64.5745 9.38015 64.271 8.98371 63.6723 8.98371C63.0832 8.98371 62.6782 9.49016 62.6782 10.0791V12.7394H61.684V9.54517C61.684 9.14968 61.6745 8.72574 61.647 8.26577H62.5216L62.5681 8.95621H62.5956C62.8631 8.47821 63.4058 8.17472 64.0139 8.17472C64.953 8.17472 65.5697 8.89266 65.5697 10.0611L65.5687 12.7394ZM68.3104 12.7394H67.3152V6.21436H68.3104V12.7394ZM71.9352 12.8409C70.6289 12.8409 69.7808 11.865 69.7808 10.5401C69.7808 9.15917 70.646 8.17472 72.0082 8.17472C73.2975 8.17472 74.1626 9.10416 74.1626 10.467C74.1636 11.865 73.27 12.8409 71.9352 12.8409ZM71.9722 8.9012C71.254 8.9012 70.794 9.57267 70.794 10.5116C70.794 11.4325 71.2645 12.104 71.9618 12.104C72.6619 12.104 73.1305 11.386 73.1305 10.4926C73.1315 9.58216 72.6723 8.9012 71.9722 8.9012ZM78.0825 12.7394L78.0104 12.2244H77.9839C77.6803 12.6389 77.2373 12.8409 76.6756 12.8409C75.874 12.8409 75.3048 12.2794 75.3048 11.5245C75.3048 10.4206 76.262 9.84961 77.9193 9.84961V9.7671C77.9193 9.17814 77.6072 8.88318 76.9906 8.88318C76.5495 8.88318 76.1624 8.99414 75.8219 9.21512L75.6198 8.56167C76.0334 8.3037 76.5495 8.17472 77.1557 8.17472C78.3244 8.17472 78.9145 8.79118 78.9145 10.0251V11.6725C78.9145 12.1239 78.9344 12.4739 78.979 12.7404L78.0825 12.7394ZM77.9459 10.5116C76.8417 10.5116 76.2876 10.7791 76.2876 11.4135C76.2876 11.883 76.5732 12.1125 76.9697 12.1125C77.4754 12.1125 77.9459 11.7265 77.9459 11.202V10.5116ZM83.7422 12.7394L83.6957 12.0215H83.6682C83.3827 12.564 82.9027 12.8409 82.232 12.8409C81.1533 12.8409 80.3546 11.8925 80.3546 10.5581C80.3546 9.15917 81.1827 8.17377 82.3135 8.17377C82.9121 8.17377 83.3362 8.37578 83.5753 8.7817H83.5952V6.21436H84.5903V11.534C84.5903 11.9665 84.6008 12.3714 84.6273 12.7394H83.7422ZM83.5952 10.1076C83.5952 9.48163 83.1806 8.94767 82.5479 8.94767C81.8108 8.94767 81.3601 9.60113 81.3601 10.5211C81.3601 11.423 81.8278 12.0404 82.5279 12.0404C83.1531 12.0404 83.5952 11.497 83.5952 10.853V10.1076ZM90.8999 12.8409C89.5936 12.8409 88.7464 11.865 88.7464 10.5401C88.7464 9.15917 89.6116 8.17472 90.9739 8.17472C92.2631 8.17472 93.1283 9.10416 93.1283 10.467C93.1292 11.865 92.2365 12.8409 90.8999 12.8409ZM90.9369 8.9012C90.2197 8.9012 89.7596 9.57267 89.7596 10.5116C89.7596 11.4325 90.2292 12.104 90.9274 12.104C91.6275 12.104 92.0961 11.386 92.0961 10.4926C92.098 9.58216 91.6379 8.9012 90.9369 8.9012ZM98.4749 12.7394H97.4798V10.1711C97.4798 9.38015 97.1762 8.98371 96.5776 8.98371C95.9885 8.98371 95.5844 9.49016 95.5844 10.0791V12.7394H94.5892V9.54517C94.5892 9.14968 94.5797 8.72574 94.5522 8.26577H95.4269L95.4734 8.95621H95.5009C95.7675 8.47821 96.311 8.17377 96.9182 8.17377C97.8574 8.17377 98.4749 8.89172 98.4749 10.0602V12.7394ZM105.164 9.01216H104.07V11.184C104.07 11.7369 104.262 12.0129 104.649 12.0129C104.824 12.0129 104.971 11.994 105.09 11.9665L105.117 12.7214C104.925 12.7954 104.667 12.8324 104.346 12.8324C103.563 12.8324 103.094 12.3999 103.094 11.2675V9.01216H102.441V8.26671H103.094V7.44729L104.07 7.15233V8.26577H105.164V9.01216ZM110.427 12.7394H109.434V10.1901C109.434 9.38963 109.131 8.98466 108.532 8.98466C108.017 8.98466 107.537 9.33462 107.537 10.0431V12.7394H106.543V6.21436H107.537V8.9012H107.556C107.87 8.41372 108.323 8.17377 108.902 8.17377C109.848 8.17377 110.427 8.90974 110.427 10.0791V12.7394ZM115.819 10.7421H112.836C112.855 11.589 113.415 12.067 114.245 12.067C114.687 12.067 115.093 11.993 115.451 11.8555L115.606 12.5459C115.183 12.7299 114.685 12.8219 114.105 12.8219C112.706 12.8219 111.878 11.938 111.878 10.5676C111.878 9.19616 112.726 8.16523 113.993 8.16523C115.136 8.16523 115.853 9.01216 115.853 10.2916C115.86 10.4426 115.848 10.5938 115.819 10.7421ZM114.908 10.0336C114.908 9.34316 114.559 8.85568 113.924 8.85568C113.353 8.85568 112.901 9.35264 112.837 10.0336H114.908Z" fill="white"/>
</g>
</g>
<defs>
<linearGradient id="paint0_linear_135_865" x1="94.7483" y1="38.0267" x2="94.7483" y2="-98.7527" gradientUnits="userSpaceOnUse">
<stop stop-color="#1A1A1A" stop-opacity="0.1"/>
<stop offset="0.123" stop-color="#212121" stop-opacity="0.151"/>
<stop offset="0.308" stop-color="#353535" stop-opacity="0.227"/>
<stop offset="0.532" stop-color="#575757" stop-opacity="0.318"/>
<stop offset="0.783" stop-color="#858585" stop-opacity="0.421"/>
<stop offset="1" stop-color="#B3B3B3" stop-opacity="0.51"/>
</linearGradient>
</defs>
</svg>
