<svg width="124" height="43" viewBox="0 0 124 43" fill="none" xmlns="http://www.w3.org/2000/svg">
<rect x="0.941406" width="123" height="43" rx="5" fill="black"/>
<path d="M43.7218 12.6819C43.0303 13.4846 41.924 14.1177 40.8176 14.0273C40.6793 12.9419 41.2209 11.7888 41.8548 11.0766C42.5463 10.2513 43.7564 9.66339 44.736 9.61816C44.8512 10.7487 44.4018 11.8566 43.7218 12.6819ZM44.7245 14.2421C43.1225 14.1516 41.7511 15.1352 40.9905 15.1352C40.2183 15.1352 39.0543 14.2873 37.7866 14.3099C36.1385 14.3325 34.6057 15.2482 33.7644 16.7066C32.0357 19.6234 33.315 23.9421 34.9861 26.3162C35.8043 27.4919 36.7839 28.7808 38.0747 28.7355C39.2963 28.6903 39.7804 27.9555 41.2555 27.9555C42.7422 27.9555 43.1686 28.7355 44.4594 28.7129C45.7963 28.6903 46.6376 27.5372 47.4558 26.3614C48.3893 25.0274 48.7697 23.7273 48.7927 23.6594C48.7697 23.6368 46.2112 22.6759 46.1881 19.7817C46.1651 17.3623 48.205 16.2092 48.2971 16.1414C47.1447 14.4682 45.3468 14.2873 44.7245 14.2421ZM53.9789 10.9635V28.5886H56.7678V22.5628H60.6286C64.1552 22.5628 66.633 20.1887 66.633 16.7519C66.633 13.315 64.2013 10.9635 60.7208 10.9635H53.9789ZM56.7678 13.2698H59.9833C62.4035 13.2698 63.7864 14.536 63.7864 16.7632C63.7864 18.9903 62.4035 20.2678 59.9717 20.2678H56.7678V13.2698ZM71.727 28.7242C73.4787 28.7242 75.1037 27.8537 75.8413 26.4745H75.8989V28.5886H78.4805V19.8156C78.4805 17.2719 76.406 15.6326 73.2137 15.6326C70.2518 15.6326 68.0621 17.2945 67.9814 19.5782H70.4938C70.7013 18.4929 71.727 17.7806 73.133 17.7806C74.8387 17.7806 75.7952 18.5607 75.7952 19.9965V20.9688L72.3147 21.1722C69.0763 21.3644 67.3245 22.6646 67.3245 24.9256C67.3245 27.2093 69.1339 28.7242 71.727 28.7242ZM72.4761 26.6327C70.9894 26.6327 70.0444 25.9318 70.0444 24.8578C70.0444 23.7499 70.9548 23.1055 72.6951 23.0037L75.7952 22.8115V23.8064C75.7952 25.457 74.3661 26.6327 72.4761 26.6327ZM81.9264 33.382C84.6462 33.382 85.9255 32.3646 87.0434 29.2782L91.9414 15.8022H89.1063L85.8218 26.2144H85.7641L82.4796 15.8022H79.5638L84.289 28.6338L84.0354 29.4139C83.609 30.7366 82.9175 31.2453 81.6844 31.2453C81.4654 31.2453 81.039 31.2227 80.8661 31.2001V33.3142C81.0275 33.3594 81.7189 33.382 81.9264 33.382Z" fill="white"/>
</svg>
