<svg width="6" height="9" viewBox="0 0 6 9" fill="none" xmlns="http://www.w3.org/2000/svg">
<path id="Vector" d="M4.33471 4.49898C4.27491 4.44862 4.23714 4.4203 4.20252 4.38568C3.08522 3.26838 1.96478 2.15108 0.850623 1.03063C0.781381 0.961387 0.72473 0.866968 0.699551 0.772548C0.658636 0.627771 0.746761 0.470405 0.878948 0.394869C1.01114 0.319333 1.17794 0.328774 1.30069 0.426342C1.33846 0.454668 1.36993 0.489288 1.40455 0.52391C2.61942 1.73878 3.83429 2.95364 5.0523 4.16851C5.28835 4.40456 5.28835 4.5934 5.05545 4.8263C3.82799 6.05376 2.60054 7.27807 1.37623 8.50553C1.25978 8.62198 1.13073 8.68807 0.963926 8.63771C0.708993 8.56218 0.611426 8.26004 0.771939 8.04916C0.800265 8.0114 0.834886 7.97992 0.869507 7.9453C1.98366 6.83115 3.10096 5.71385 4.21511 4.5997C4.24344 4.56822 4.28121 4.54304 4.33471 4.49898Z" fill="#616161"/>
</svg>
