<svg width="15" height="18" viewBox="0 0 15 18" fill="none" xmlns="http://www.w3.org/2000/svg">
<path d="M10.8532 4.37244C11.5442 4.37244 12.2082 4.37244 12.8653 4.37244C13.3802 4.37244 13.4751 4.45374 13.536 4.94831C13.9832 8.34933 14.4303 11.7436 14.8775 15.1446C14.9181 15.4562 14.9859 15.7611 14.9994 16.0728C15.0062 16.2286 14.952 16.4115 14.8639 16.5335C14.7284 16.7232 14.5455 16.8858 14.3626 17.028C14.2677 17.1026 14.1187 17.15 13.99 17.15C9.66078 17.1568 5.33159 17.1568 1.0024 17.15C0.866903 17.15 0.69753 17.0822 0.595906 16.9942C-0.0680385 16.4115 -0.0544892 16.4115 0.0606848 15.5646C0.379107 13.1934 0.68398 10.8154 0.995627 8.4374C1.15145 7.25179 1.30727 6.07295 1.4631 4.88733C1.52407 4.45374 1.63247 4.36566 2.07962 4.36566C2.74356 4.36566 3.40073 4.35889 4.06468 4.35889C4.07823 4.35889 4.09177 4.34534 4.1392 4.33179C4.1392 4.10822 4.1392 3.87787 4.1392 3.64075C4.14597 1.77764 5.43999 0.361673 7.28955 0.205849C9.09168 0.0500252 10.7854 1.56761 10.8464 3.39007C10.8599 3.70172 10.8532 4.01337 10.8532 4.37244ZM12.7366 5.19221C12.6485 5.18543 12.6147 5.18543 12.5808 5.18543C9.21363 5.18543 5.83971 5.18543 2.47256 5.17866C2.25577 5.17866 2.22867 5.28028 2.20834 5.44965C1.98477 7.19759 1.74765 8.93875 1.5173 10.6867C1.28695 12.4075 1.06338 14.1284 0.839803 15.8492C0.792378 16.1879 0.948202 16.3573 1.28695 16.3573C5.42644 16.3573 9.56593 16.3573 13.7054 16.3573C14.0238 16.3573 14.1932 16.1812 14.1526 15.8695C14.0103 14.7855 13.868 13.7083 13.7257 12.6243C13.4615 10.6393 13.2041 8.64743 12.9398 6.66237C12.8721 6.1678 12.8043 5.68 12.7366 5.19221ZM4.93187 4.34534C6.66625 4.34534 8.34644 4.34534 10.0402 4.34534C10.0402 4.02014 10.0537 3.70849 10.0402 3.39685C9.99275 2.14348 8.95618 1.10014 7.67572 1.01207C6.41558 0.923992 5.21641 1.83861 5.01994 3.07165C4.95219 3.48492 4.95897 3.90497 4.93187 4.34534Z" fill="#214336"/>
</svg>
