<svg width="130" height="39" viewBox="0 0 130 39" fill="none" xmlns="http://www.w3.org/2000/svg">
<g id="Group 52">
<path id="Vector" d="M124.473 38.0399H4.78741C2.10646 38.0399 0 35.9986 0 33.4006V5.56504C0 2.96706 2.10646 0.925781 4.78741 0.925781H124.473C127.154 0.925781 129.26 2.96706 129.26 5.56504V33.4006C129.26 35.9986 127.154 38.0399 124.473 38.0399Z" fill="black"/>
<path id="Vector_2" d="M124.473 1.66806C126.675 1.66806 128.494 3.43098 128.494 5.56504V33.4006C128.494 35.5347 126.675 37.2976 124.473 37.2976H4.78741C2.5852 37.2976 0.765985 35.5347 0.765985 33.4006V5.56504C0.765985 3.43098 2.5852 1.66806 4.78741 1.66806H124.473ZM124.473 0.925781H4.78741C2.10646 0.925781 0 3.05984 0 5.56504V33.4006C0 35.9986 2.10646 38.0399 4.78741 38.0399H124.473C127.154 38.0399 129.26 35.9986 129.26 33.4006V5.56504C129.26 3.05984 127.154 0.925781 124.473 0.925781Z" fill="#A6A6A6"/>
<path id="Vector_3" d="M45.3845 10.39C45.3845 11.1323 45.193 11.7818 44.7143 12.2457C44.1398 12.8025 43.4696 13.0808 42.6078 13.0808C41.7461 13.0808 41.0759 12.8025 40.5014 12.2457C39.9269 11.689 39.6396 11.0395 39.6396 10.2045C39.6396 9.3694 39.9269 8.7199 40.5014 8.16319C41.0759 7.60648 41.7461 7.32812 42.6078 7.32812C42.9908 7.32812 43.3738 7.42091 43.7568 7.60648C44.1398 7.79205 44.4271 7.97762 44.6185 8.25598L44.1398 8.7199C43.7568 8.25598 43.2781 8.07041 42.6078 8.07041C42.0334 8.07041 41.4589 8.25598 41.0759 8.7199C40.5971 9.09104 40.4056 9.64775 40.4056 10.2973C40.4056 10.9467 40.5971 11.5035 41.0759 11.8746C41.5546 12.2457 42.0334 12.5241 42.6078 12.5241C43.2781 12.5241 43.7568 12.3385 44.2356 11.8746C44.5228 11.5962 44.7143 11.2251 44.7143 10.7612H42.6078V10.0189H45.3845V10.39ZM49.7889 8.07041H47.2037V9.83333H49.5975V10.4828H47.2037V12.2457H49.7889V12.988H46.4378V7.42091H49.7889V8.07041ZM52.9486 12.988H52.1827V8.07041H50.5549V7.42091H54.5764V8.07041H52.9486V12.988ZM57.3531 12.988V7.42091H58.119V12.988H57.3531ZM61.3745 12.988H60.6085V8.07041H58.9808V7.42091H62.9064V8.07041H61.2787V12.988H61.3745ZM70.4705 12.2457C69.8961 12.8025 69.2258 13.0808 68.3641 13.0808C67.5024 13.0808 66.8321 12.8025 66.2576 12.2457C65.6831 11.689 65.3959 11.0395 65.3959 10.2045C65.3959 9.3694 65.6831 8.7199 66.2576 8.16319C66.8321 7.60648 67.5024 7.32812 68.3641 7.32812C69.2258 7.32812 69.8961 7.60648 70.4705 8.16319C71.045 8.7199 71.3323 9.3694 71.3323 10.2045C71.3323 11.0395 71.045 11.689 70.4705 12.2457ZM66.8321 11.7818C67.2151 12.153 67.7896 12.4313 68.3641 12.4313C68.9386 12.4313 69.5131 12.2457 69.8961 11.7818C70.2791 11.4107 70.5663 10.854 70.5663 10.2045C70.5663 9.55497 70.3748 8.99826 69.8961 8.62712C69.5131 8.25598 68.9386 7.97762 68.3641 7.97762C67.7896 7.97762 67.2151 8.16319 66.8321 8.62712C66.4491 8.99826 66.1619 9.55497 66.1619 10.2045C66.1619 10.854 66.3534 11.4107 66.8321 11.7818ZM72.3855 12.988V7.42091H73.2472L76.0239 11.7818V7.42091H76.7899V12.988H76.0239L73.0558 8.44155V12.988H72.3855Z" fill="white" stroke="white" stroke-width="1.18519" stroke-miterlimit="10"/>
<path id="Vector_4" d="M65.2045 21.1529C62.9066 21.1529 61.0874 22.823 61.0874 25.1427C61.0874 27.3695 62.9066 29.1324 65.2045 29.1324C67.5025 29.1324 69.3217 27.4623 69.3217 25.1427C69.3217 22.7302 67.5025 21.1529 65.2045 21.1529ZM65.2045 27.4623C63.9598 27.4623 62.9066 26.4417 62.9066 25.0499C62.9066 23.6581 63.9598 22.6375 65.2045 22.6375C66.4493 22.6375 67.5025 23.5653 67.5025 25.0499C67.5025 26.4417 66.4493 27.4623 65.2045 27.4623ZM56.3 21.1529C54.002 21.1529 52.1828 22.823 52.1828 25.1427C52.1828 27.3695 54.002 29.1324 56.3 29.1324C58.5979 29.1324 60.4171 27.4623 60.4171 25.1427C60.4171 22.7302 58.5979 21.1529 56.3 21.1529ZM56.3 27.4623C55.0552 27.4623 54.002 26.4417 54.002 25.0499C54.002 23.6581 55.0552 22.6375 56.3 22.6375C57.5447 22.6375 58.5979 23.5653 58.5979 25.0499C58.5979 26.4417 57.5447 27.4623 56.3 27.4623ZM45.6719 22.3591V24.0292H49.7891C49.6933 24.9571 49.3103 25.6994 48.8316 26.1633C48.2571 26.72 47.2996 27.3695 45.6719 27.3695C43.0867 27.3695 41.1718 25.421 41.1718 22.9158C41.1718 20.4106 43.1825 18.4621 45.6719 18.4621C47.0124 18.4621 48.0656 19.0188 48.8316 19.6683L50.0763 18.4621C49.0231 17.5343 47.6826 16.792 45.7677 16.792C42.3207 16.792 39.3525 19.5755 39.3525 22.9158C39.3525 26.2561 42.3207 29.0396 45.7677 29.0396C47.6826 29.0396 49.0231 28.4829 50.1721 27.2767C51.3211 26.1633 51.7041 24.5859 51.7041 23.3797C51.7041 23.0086 51.7041 22.6375 51.6083 22.3591H45.6719ZM89.1416 23.6581C88.7586 22.7302 87.8011 21.1529 85.6946 21.1529C83.5882 21.1529 81.8647 22.7302 81.8647 25.1427C81.8647 27.3695 83.5882 29.1324 85.8861 29.1324C87.7053 29.1324 88.8543 28.019 89.2373 27.3695L87.8969 26.4417C87.4181 27.0911 86.8436 27.5551 85.8861 27.5551C84.9286 27.5551 84.3542 27.1839 83.8754 26.3489L89.3331 24.122L89.1416 23.6581ZM83.5882 24.9571C83.5882 23.4725 84.8329 22.6375 85.6946 22.6375C86.3649 22.6375 87.0351 23.0086 87.2266 23.4725L83.5882 24.9571ZM79.088 28.7613H80.9072V17.1631H79.088V28.7613ZM76.2156 21.988C75.7368 21.524 74.9709 21.0601 74.0134 21.0601C72.0027 21.0601 70.0877 22.823 70.0877 25.0499C70.0877 27.2767 71.9069 28.9469 74.0134 28.9469C74.9709 28.9469 75.7368 28.4829 76.1198 28.019H76.2156V28.5757C76.2156 30.0603 75.3538 30.8953 74.0134 30.8953C72.9601 30.8953 72.1941 30.1531 72.0027 29.5036L70.4707 30.1531C70.9494 31.1737 72.0984 32.4727 74.1091 32.4727C76.2156 32.4727 77.939 31.2665 77.939 28.3901V21.3385H76.2156V21.988ZM74.1091 27.4623C72.8644 27.4623 71.8112 26.4417 71.8112 25.0499C71.8112 23.6581 72.8644 22.6375 74.1091 22.6375C75.3538 22.6375 76.3113 23.6581 76.3113 25.0499C76.3113 26.4417 75.3538 27.4623 74.1091 27.4623ZM97.4717 17.1631H93.163V28.7613H94.9822V24.4004H97.4717C99.4824 24.4004 101.397 23.0086 101.397 20.7818C101.397 18.5549 99.4824 17.1631 97.4717 17.1631ZM97.5674 22.7302H94.9822V18.7405H97.5674C98.9079 18.7405 99.6739 19.8539 99.6739 20.689C99.5781 21.7096 98.8121 22.7302 97.5674 22.7302ZM108.578 21.0601C107.238 21.0601 105.897 21.6168 105.419 22.823L107.046 23.4725C107.429 22.823 108.004 22.6375 108.674 22.6375C109.632 22.6375 110.493 23.1942 110.589 24.122V24.2148C110.302 24.0292 109.536 23.7509 108.77 23.7509C107.046 23.7509 105.323 24.6787 105.323 26.3489C105.323 27.9262 106.759 28.9469 108.291 28.9469C109.536 28.9469 110.11 28.3901 110.589 27.8334H110.685V28.7613H112.408V24.3076C112.217 22.2663 110.589 21.0601 108.578 21.0601ZM108.387 27.4623C107.812 27.4623 106.951 27.1839 106.951 26.4417C106.951 25.5138 108.004 25.2354 108.866 25.2354C109.632 25.2354 110.015 25.421 110.493 25.6066C110.302 26.72 109.344 27.4623 108.387 27.4623ZM118.44 21.3385L116.43 26.3489H116.334L114.228 21.3385H112.313L115.472 28.3901L113.653 32.2871H115.472L120.355 21.3385H118.44ZM102.355 28.7613H104.174V17.1631H102.355V28.7613Z" fill="white"/>
<g id="Group">
<path id="Vector_5" d="M9.95746 7.88525C9.67021 8.16361 9.57446 8.62753 9.57446 9.18425V29.6898C9.57446 30.2465 9.76596 30.7104 10.0532 30.9888L10.149 31.0815L22.0217 19.5762V19.3906L9.95746 7.88525Z" fill="white"/>
<path id="Vector_6" d="M25.8522 23.4722L21.9265 19.668V19.3896L25.8522 15.5854L25.9479 15.6782L30.6396 18.2762C31.9801 19.0185 31.9801 20.2247 30.6396 20.967L25.8522 23.4722Z" fill="white"/>
<path id="Vector_7" d="M25.9482 23.3804L21.9268 19.4834L9.95825 31.0815C10.437 31.5455 11.1072 31.5455 11.969 31.1743L25.9482 23.3804Z" fill="white"/>
<path id="Vector_8" d="M25.9482 15.5863L11.969 7.88509C11.1072 7.42116 10.437 7.51395 9.95825 7.97787L21.9268 19.4832L25.9482 15.5863Z" fill="white"/>
<path id="Vector_9" opacity="0.2" d="M25.8524 23.2871L11.969 30.8955C11.203 31.3594 10.5327 31.2666 10.054 30.8955L9.95825 30.9883L10.054 31.0811C10.5327 31.4522 11.203 31.545 11.969 31.0811L25.8524 23.2871Z" fill="black"/>
<path id="Vector_10" opacity="0.12" d="M9.95746 30.896C9.67021 30.6176 9.57446 30.1537 9.57446 29.597V29.6898C9.57446 30.2465 9.76596 30.7104 10.0532 30.9888V30.896H9.95746ZM30.6391 20.6896L25.8516 23.2876L25.9474 23.3804L30.6391 20.7824C31.3093 20.4112 31.5965 19.9473 31.5965 19.4834C31.5965 19.9473 31.2135 20.3185 30.6391 20.6896Z" fill="black"/>
<path id="Vector_11" opacity="0.25" d="M11.9682 7.97727L30.6391 18.2764C31.2135 18.6476 31.5965 19.0187 31.5965 19.4826C31.5965 19.0187 31.3093 18.5548 30.6391 18.1836L11.9682 7.88448C10.6277 7.1422 9.57446 7.69891 9.57446 9.18348V9.27626C9.57446 7.88448 10.6277 7.23499 11.9682 7.97727Z" fill="white"/>
</g>
</g>
</svg>
