<svg width="125" height="43" viewBox="0 0 125 43" fill="none" xmlns="http://www.w3.org/2000/svg">
<rect width="125" height="43" rx="5" fill="black"/>
<g clip-path="url(#clip0_155_2748)">
<path d="M60.8227 21.994V29.0603H58.5352V11.5845H64.4827C65.9314 11.5845 67.3039 12.1163 68.3714 13.1041C69.4389 14.0159 69.9727 15.3836 69.9727 16.8272C69.9727 18.2709 69.4389 19.5626 68.3714 20.5504C67.3039 21.5381 66.0077 22.07 64.4827 22.07L60.8227 21.994ZM60.8227 13.712V19.7905H64.6352C65.4739 19.7905 66.3127 19.4866 66.8464 18.8787C68.0664 17.739 68.0664 15.8395 66.9227 14.6997L66.8464 14.6238C66.2364 14.0159 65.4739 13.636 64.6352 13.712H60.8227Z" fill="white"/>
<path d="M75.2339 16.751C76.9114 16.751 78.2077 17.2069 79.1989 18.1187C80.1902 19.0304 80.6477 20.2461 80.6477 21.7658V29.0601H78.5127V27.3885H78.4364C77.5214 28.7561 76.2252 29.44 74.7002 29.44C73.4039 29.44 72.2602 29.0601 71.3452 28.3002C70.5064 27.5404 69.9727 26.4767 69.9727 25.3369C69.9727 24.1212 70.4302 23.1335 71.3452 22.3736C72.2602 21.6138 73.5564 21.3099 75.0814 21.3099C76.4539 21.3099 77.5214 21.5378 78.3602 22.0697V21.5378C78.3602 20.778 78.0552 20.0182 77.4452 19.5623C76.8352 19.0304 76.0727 18.7265 75.2339 18.7265C73.9377 18.7265 72.9464 19.2584 72.2602 20.3221L70.2777 19.1064C71.4977 17.5108 73.0989 16.751 75.2339 16.751ZM72.3364 25.4129C72.3364 26.0208 72.6414 26.5527 73.0989 26.8566C73.6327 27.2365 74.2427 27.4644 74.8527 27.4644C75.7677 27.4644 76.6827 27.0845 77.3689 26.4007C78.1314 25.7169 78.5127 24.8811 78.5127 23.9693C77.8264 23.4374 76.8352 23.1335 75.5389 23.1335C74.6239 23.1335 73.8614 23.3614 73.2514 23.8173C72.6414 24.1972 72.3364 24.7291 72.3364 25.4129Z" fill="white"/>
<path d="M93.0005 17.1309L85.4518 34.3788H83.1643L85.9855 28.3762L81.0293 17.2068H83.4693L87.053 25.7928H87.1293L90.6368 17.2068H93.0005V17.1309Z" fill="white"/>
<path d="M51.7482 20.4744C51.7482 19.7905 51.672 19.1067 51.5957 18.4229H42.0645V22.2979H47.4782C47.2495 23.5136 46.5632 24.6534 45.4957 25.3372V27.8446H48.7745C50.6807 26.097 51.7482 23.5136 51.7482 20.4744Z" fill="#4285F4"/>
<path d="M42.0659 30.2761C44.8109 30.2761 47.0984 29.3643 48.7759 27.8446L45.4971 25.3372C44.5821 25.9451 43.4384 26.325 42.0659 26.325C39.4734 26.325 37.1859 24.5774 36.4234 22.146H33.0684V24.7294C34.8221 28.1486 38.2534 30.2761 42.0659 30.2761Z" fill="#34A853"/>
<path d="M36.422 22.146C35.9645 20.9303 35.9645 19.5626 36.422 18.2709V15.6875H33.067C31.6183 18.4988 31.6183 21.842 33.067 24.7294L36.422 22.146Z" fill="#FBBC04"/>
<path d="M42.0658 14.1676C43.5145 14.1676 44.887 14.6994 45.9545 15.6872L48.852 12.7999C47.022 11.1283 44.582 10.1405 42.142 10.2165C38.3295 10.2165 34.822 12.344 33.1445 15.7632L36.4995 18.3466C37.1858 15.9151 39.4733 14.1676 42.0658 14.1676Z" fill="#EA4335"/>
</g>
<defs>
<clipPath id="clip0_155_2748">
<rect width="61" height="28.9492" fill="white" transform="translate(32 7.02539)"/>
</clipPath>
</defs>
</svg>
