<svg width="18" height="17" viewBox="0 0 18 17" fill="none" xmlns="http://www.w3.org/2000/svg">
<path d="M8.98557 16.6281C6.4323 14.8092 4.04129 12.828 2.09004 10.3687C1.24465 9.30129 0.523074 8.16129 0.168691 6.82061C-0.578502 4.01543 1.23184 1.19318 4.1096 0.783288C6.08219 0.50149 7.66624 1.24441 8.82759 2.86689C8.8831 2.94374 8.93006 3.0206 8.99838 3.12734C9.04534 3.05902 9.08377 3.00352 9.11793 2.95228C10.2024 1.26576 12.128 0.480142 13.9213 0.787558C15.9665 1.14194 17.4651 2.57655 17.8921 4.53633C18.1526 5.74465 17.922 6.88892 17.4096 7.9905C16.8332 9.23298 16.0177 10.3132 15.1126 11.3294C13.3278 13.3233 11.2869 15.0269 9.10085 16.5597C9.06669 16.5768 9.0368 16.5939 8.98557 16.6281ZM8.37073 5.53971C8.35366 5.386 8.34085 5.25791 8.32377 5.13409C8.04624 2.55947 5.10016 1.16329 2.91409 2.57228C1.46667 3.50307 0.924423 5.24937 1.55206 6.95724C1.95341 8.05027 2.61094 8.99387 3.34533 9.88196C4.64758 11.4617 6.15904 12.828 7.7559 14.1004C8.16579 14.4249 8.58422 14.7409 8.99838 15.0611C11.0436 13.5325 12.9649 11.9058 14.5917 9.95455C15.2705 9.13904 15.8811 8.27657 16.3081 7.29881C16.6326 6.55589 16.7991 5.79162 16.671 4.97611C16.4105 3.31521 15.0058 2.08981 13.2681 2.00869C11.684 1.9361 10.164 3.07183 9.76692 4.63881C9.69433 4.92914 9.66018 5.23229 9.60894 5.53971C9.19905 5.53971 8.78916 5.53971 8.37073 5.53971Z" fill="#214336"/>
</svg>
