<svg width="35" height="45" viewBox="0 0 35 45" fill="none" xmlns="http://www.w3.org/2000/svg">
<g id="Untitled-1 copy 1">
<g id="T68iq3.tif">
<g id="Group">
<path id="Vector" d="M15.7839 14.3851C18.9755 14.3851 22.1721 14.3851 25.3638 14.3851C25.7256 14.3851 26.0624 14.4351 26.3288 14.7097C26.5801 14.9644 26.6404 15.284 26.6404 15.6285C26.6404 18.8244 26.6404 22.0252 26.6404 25.2211C26.6404 26.1598 26.6404 27.0986 26.6404 28.0374C26.6404 28.8763 26.2232 29.2858 25.3738 29.2858C19.0358 29.2858 12.7029 29.2858 6.36488 29.2858C6.28949 29.2858 6.2141 29.2858 6.13871 29.2858C5.33955 29.2758 4.91735 28.8563 4.91735 28.0624C4.91735 24.5819 4.91735 21.1014 4.91735 17.6209C4.91735 16.9718 4.93746 16.3226 4.91233 15.6784C4.87714 14.8945 5.32447 14.3652 6.2342 14.3751C9.41576 14.3951 12.6023 14.3851 15.7839 14.3851ZM25.7005 15.9231C25.5648 16.048 25.4593 16.1379 25.3587 16.2327C22.5943 18.8194 19.835 21.401 17.0706 23.9877C16.2312 24.7716 15.3315 24.7716 14.4972 23.9877C11.6876 21.3711 8.88299 18.7445 6.07337 16.1229C6.00803 16.0629 5.94269 16.008 5.86227 15.9431C5.86227 19.843 5.86227 23.713 5.86227 27.6229C5.93766 27.548 5.9829 27.4981 6.02813 27.4482C7.16404 26.1948 8.29995 24.9414 9.43587 23.693C9.90832 23.1737 10.3758 22.6544 10.8482 22.1401C11.0241 21.9453 11.2604 21.9054 11.4564 22.0252C11.6574 22.1451 11.7127 22.3298 11.6574 22.5395C11.6273 22.6444 11.5469 22.7443 11.4715 22.8292C9.87817 24.5869 8.27985 26.3446 6.68656 28.1023C6.62122 28.1722 6.5609 28.2471 6.48049 28.342C12.6978 28.342 18.87 28.342 25.0923 28.342C24.9868 28.2272 24.9114 28.1373 24.836 28.0574C23.2477 26.3047 21.6545 24.5569 20.0662 22.8042C19.835 22.5495 19.8249 22.2649 20.036 22.0801C20.2471 21.8954 20.5236 21.9353 20.7598 22.195C22.0314 23.5932 23.298 24.9964 24.5696 26.3945C24.9365 26.799 25.3034 27.1985 25.7055 27.6379C25.7005 23.708 25.7005 19.843 25.7005 15.9231ZM6.62624 15.3089C6.61117 15.3239 6.60111 15.3439 6.58604 15.3589C6.65138 15.4088 6.71672 15.4537 6.772 15.5037C8.55126 17.1665 10.3255 18.8294 12.1048 20.4872C13.1452 21.4609 14.1856 22.4347 15.231 23.4034C15.5728 23.723 15.9799 23.713 16.3318 23.4084C16.4071 23.3435 16.4825 23.2736 16.5529 23.2037C19.2922 20.642 22.0314 18.0803 24.7707 15.5187C24.836 15.4587 24.9164 15.4188 24.9918 15.3738C24.9717 15.3489 24.9566 15.3289 24.9365 15.3039C18.8298 15.3089 12.728 15.3089 6.62624 15.3089Z" fill="#214336"/>
</g>
</g>
</g>
</svg>
