<svg width="249" height="54" viewBox="0 0 249 54" fill="none" xmlns="http://www.w3.org/2000/svg">
<g filter="url(#filter0_d_155_2892)">
<path d="M12.0824 28.7725C12.0824 28.7725 20.9882 28.5045 29.4483 32.9201C21.8197 21.3466 10.8108 21.1221 1.0032 22.923C1.0032 22.923 9.14211 35.2202 20.0459 36.2747C27.4016 36.9839 31.773 38.3009 33.8569 39.0739C30.0223 35.2518 19.0435 28.7823 12.0824 28.7725Z" fill="#6D8434"/>
<path d="M34.5804 36.4069C34.5804 36.4069 27.7534 29.7612 31.7604 22.5462C35.7674 15.3311 43.2936 13.869 43.2936 13.869C43.2936 13.869 47.7429 25.4872 36.9835 35.2616C36.9835 35.2616 34.7513 27.5428 39.5358 21.4375C39.543 21.4476 32.3505 28.6915 34.5804 36.4069Z" fill="#6D8434"/>
</g>
<path d="M230.279 53.4976V31.6499H237.52C239.029 31.6499 240.438 31.936 241.749 32.5082C243.071 33.07 244.231 33.8555 245.229 34.8646C246.239 35.8634 247.024 37.0234 247.586 38.3447C248.158 39.6555 248.444 41.0652 248.444 42.5738C248.444 44.0823 248.158 45.4972 247.586 46.8185C247.024 48.1293 246.239 49.2893 245.229 50.2985C244.231 51.2972 243.071 52.0827 241.749 52.6549C240.438 53.2167 239.029 53.4976 237.52 53.4976H230.279ZM234.961 48.816H237.52C238.363 48.816 239.159 48.6547 239.908 48.3322C240.657 48.0097 241.323 47.5623 241.905 46.9901C242.488 46.4179 242.941 45.7573 243.263 45.0082C243.596 44.2488 243.762 43.4373 243.762 42.5738C243.762 41.7103 243.596 40.904 243.263 40.1549C242.941 39.4058 242.488 38.7452 241.905 38.173C241.333 37.5904 240.673 37.1378 239.924 36.8153C239.174 36.4928 238.373 36.3316 237.52 36.3316H234.961V48.816Z" fill="#121212"/>
<path d="M211.139 53.4976V31.6499H220.034C221.23 31.6499 222.312 31.9516 223.28 32.555C224.247 33.1584 225.012 33.9699 225.574 34.9895C226.146 35.9986 226.432 37.1118 226.432 38.3291C226.432 39.2654 226.276 40.1393 225.964 40.9508C225.652 41.7519 225.204 42.4645 224.622 43.0887C224.05 43.7026 223.373 44.1967 222.593 44.5713L227.774 53.4976H222.375L217.443 45.0082H215.82V53.4976H211.139ZM215.82 40.3266H219.472C219.888 40.3266 220.268 40.2225 220.611 40.0145C220.955 39.796 221.23 39.5099 221.438 39.1562C221.646 38.8024 221.75 38.4123 221.75 37.9857C221.75 37.5592 221.646 37.1691 221.438 36.8153C221.23 36.4616 220.955 36.1807 220.611 35.9726C220.268 35.7542 219.888 35.6449 219.472 35.6449H215.82V40.3266Z" fill="#121212"/>
<path d="M195.46 31.6499H200.734L208.662 53.4976H203.7L202.451 50.0644H193.743L192.495 53.4976H187.532L195.46 31.6499ZM195.46 45.3828H200.734L198.082 38.1418L195.46 45.3828Z" fill="#121212"/>
<path d="M184.02 31.6499H189.545L181.96 43.6661V53.4976H177.279V43.6661L169.694 31.6499H175.219L179.619 38.5788L184.02 31.6499Z" fill="#121212"/>
<path d="M142.65 53.4976L146.895 31.6499H150.89L155.79 44.5401L160.69 31.6499H164.685L168.93 53.4976H164.155L161.876 41.6999L157.413 53.4976H154.167L149.704 41.6999L147.426 53.4976H142.65Z" fill="#121212"/>
<path d="M130.485 53.9034C128.737 53.9034 127.192 53.4768 125.85 52.6237C124.518 51.7706 123.473 50.6262 122.713 49.1905C121.964 47.7444 121.59 46.1422 121.59 44.384V31.6499H126.271V44.384C126.271 45.2683 126.438 46.0798 126.771 46.8185C127.104 47.5467 127.582 48.1293 128.207 48.5663C128.841 49.0032 129.601 49.2217 130.485 49.2217C131.38 49.2217 132.139 49.0084 132.763 48.5819C133.388 48.1449 133.861 47.5623 134.183 46.8341C134.506 46.0954 134.667 45.2787 134.667 44.384V31.6499H139.349V44.384C139.349 45.7053 139.136 46.9433 138.709 48.0981C138.283 49.2425 137.674 50.2517 136.883 51.1256C136.093 51.9995 135.156 52.6809 134.074 53.1699C132.992 53.6589 131.796 53.9034 130.485 53.9034Z" fill="#121212"/>
<path d="M113.247 31.6499H118.771L111.187 43.6661V53.4976H106.505V43.6661L98.9209 31.6499H104.445L108.846 38.5788L113.247 31.6499Z" fill="#121212"/>
<path d="M71.877 53.4976L76.1217 31.6499H80.1167L85.0168 44.5401L89.9169 31.6499H93.9119L98.1566 53.4976H93.3813L91.1029 41.6999L86.6398 53.4976H83.3938L78.9306 41.6999L76.6522 53.4976H71.877Z" fill="#121212"/>
<path d="M59.7116 53.9034C57.9637 53.9034 56.4188 53.4768 55.0767 52.6237C53.745 51.7706 52.6995 50.6262 51.94 49.1905C51.1909 47.7444 50.8164 46.1422 50.8164 44.384V31.6499H55.4981V44.384C55.4981 45.2683 55.6645 46.0798 55.9974 46.8185C56.3304 47.5467 56.8089 48.1293 57.4331 48.5663C58.0678 49.0032 58.8272 49.2217 59.7116 49.2217C60.6063 49.2217 61.3657 49.0084 61.99 48.5819C62.6142 48.1449 63.0875 47.5623 63.4101 46.8341C63.7326 46.0954 63.8938 45.2787 63.8938 44.384V31.6499H68.5755V44.384C68.5755 45.7053 68.3622 46.9433 67.9357 48.0981C67.5091 49.2425 66.9005 50.2517 66.1098 51.1256C65.3191 51.9995 64.3828 52.6809 63.3008 53.1699C62.2188 53.6589 61.0224 53.9034 59.7116 53.9034Z" fill="#121212"/>
<path d="M42.4733 31.6499H47.9977L40.4134 43.6661V53.4976H35.7317V43.6661L28.1475 31.6499H33.6718L38.0726 38.5788L42.4733 31.6499Z" fill="#121212"/>
<defs>
<filter id="filter0_d_155_2892" x="0.417051" y="13.8691" width="44.3739" height="26.3763" filterUnits="userSpaceOnUse" color-interpolation-filters="sRGB">
<feFlood flood-opacity="0" result="BackgroundImageFix"/>
<feColorMatrix in="SourceAlpha" type="matrix" values="0 0 0 0 0 0 0 0 0 0 0 0 0 0 0 0 0 0 127 0" result="hardAlpha"/>
<feOffset dy="0.585879"/>
<feGaussianBlur stdDeviation="0.29294"/>
<feComposite in2="hardAlpha" operator="out"/>
<feColorMatrix type="matrix" values="0 0 0 0 0 0 0 0 0 0 0 0 0 0 0 0 0 0 0.1 0"/>
<feBlend mode="normal" in2="BackgroundImageFix" result="effect1_dropShadow_155_2892"/>
<feBlend mode="normal" in="SourceGraphic" in2="effect1_dropShadow_155_2892" result="shape"/>
</filter>
</defs>
</svg>
