<svg width="125" height="42" viewBox="0 0 125 42" fill="none" xmlns="http://www.w3.org/2000/svg">
<rect x="0.0585938" width="124.823" height="42" rx="5" fill="#003087"/>
<path d="M29.8583 11.4634C29.6525 11.4634 29.4777 11.6128 29.4455 11.8162L27.0633 26.924C27.0546 26.9792 27.058 27.0356 27.0732 27.0893C27.0885 27.1431 27.1151 27.1929 27.1514 27.2353C27.1878 27.2778 27.2328 27.3119 27.2836 27.3353C27.3343 27.3586 27.3895 27.3707 27.4454 27.3707H30.2705C30.4761 27.3707 30.6512 27.221 30.6833 27.0179L31.3831 22.5814C31.415 22.3782 31.5901 22.2285 31.7959 22.2285H34.3645C37.3657 22.2285 39.9134 20.0388 40.3787 17.0715C40.8479 14.0792 38.5102 11.4699 35.1969 11.4634H29.8583ZM32.6047 14.836H34.6598C36.3517 14.836 36.9027 15.8343 36.7285 16.9384C36.5543 18.0448 35.6986 18.8597 34.0619 18.8597H31.9701L32.6047 14.836ZM46.1248 15.863C45.4114 15.8656 44.5905 16.0118 43.669 16.3957C41.5551 17.2768 40.5399 19.0977 40.1088 20.4253C40.1088 20.4253 38.7367 24.4756 41.8368 26.7008C41.8368 26.7008 44.7119 28.843 47.9484 26.5688L47.8926 26.924C47.8839 26.9791 47.8873 27.0355 47.9025 27.0892C47.9177 27.1429 47.9443 27.1927 47.9806 27.2351C48.0168 27.2776 48.0618 27.3117 48.1125 27.3351C48.1631 27.3585 48.2183 27.3707 48.2741 27.3707H50.9561C51.1619 27.3707 51.3367 27.221 51.3689 27.0179L53.0003 16.672C53.009 16.6169 53.0057 16.5604 52.9905 16.5067C52.9754 16.4529 52.9488 16.403 52.9125 16.3605C52.8763 16.318 52.8312 16.2838 52.7805 16.2604C52.7298 16.237 52.6746 16.2248 52.6188 16.2247H49.9368C49.731 16.2247 49.5559 16.3744 49.524 16.5775L49.4363 17.1344C49.4363 17.1344 48.2652 15.855 46.1248 15.863ZM46.2125 19.1308C46.5204 19.1308 46.8021 19.1733 47.0549 19.2545C48.2121 19.626 48.8682 20.7377 48.6783 21.9427C48.4442 23.4265 47.2273 24.519 45.6668 24.519C45.3591 24.519 45.0774 24.4768 44.8244 24.3956C43.6675 24.0241 43.0073 22.9124 43.1971 21.7074C43.4313 20.2236 44.6519 19.1308 46.2125 19.1308Z" fill="white"/>
<path d="M68.4804 11.4634C68.2746 11.4634 68.0998 11.6128 68.0676 11.8162L65.6853 26.924C65.6767 26.9792 65.6801 27.0356 65.6953 27.0893C65.7105 27.1431 65.7372 27.1929 65.7735 27.2353C65.8098 27.2778 65.8549 27.3119 65.9056 27.3353C65.9564 27.3586 66.0116 27.3707 66.0674 27.3707H68.8926C69.0981 27.3707 69.2732 27.221 69.3054 27.0179L70.0052 22.5814C70.0371 22.3782 70.2122 22.2285 70.418 22.2285H72.9866C75.9878 22.2285 78.5351 20.0388 79.0002 17.0715C79.4697 14.0792 77.1323 11.4699 73.819 11.4634H68.4804ZM71.2268 14.836H73.2819C74.9738 14.836 75.5248 15.8343 75.3506 16.9384C75.1764 18.0448 74.321 18.8597 72.684 18.8597H70.5922L71.2268 14.836ZM84.7465 15.863C84.0332 15.8656 83.2123 16.0118 82.2907 16.3957C80.1769 17.2768 79.1617 19.0977 78.7306 20.4253C78.7306 20.4253 77.359 24.4756 80.4591 26.7008C80.4591 26.7008 83.3337 28.843 86.5705 26.5688L86.5146 26.924C86.506 26.9792 86.5094 27.0356 86.5246 27.0893C86.5398 27.1431 86.5665 27.1929 86.6028 27.2353C86.6391 27.2778 86.6842 27.3119 86.7349 27.3353C86.7857 27.3586 86.8409 27.3707 86.8967 27.3707H89.5784C89.7842 27.3707 89.959 27.221 89.9912 27.0179L91.6232 16.672C91.632 16.6168 91.6286 16.5603 91.6135 16.5065C91.5983 16.4527 91.5716 16.4028 91.5353 16.3603C91.499 16.3178 91.4539 16.2836 91.4031 16.2602C91.3523 16.2368 91.297 16.2247 91.2411 16.2247H88.5591C88.3533 16.2247 88.1782 16.3744 88.1463 16.5775L88.0586 17.1344C88.0586 17.1344 86.887 15.855 84.7465 15.863ZM84.8342 19.1308C85.1422 19.1308 85.4239 19.1733 85.6767 19.2545C86.8339 19.626 87.4899 20.7377 87.3001 21.9427C87.0659 23.4265 85.8491 24.519 84.2886 24.519C83.9809 24.519 83.6992 24.4768 83.4462 24.3956C82.2893 24.0241 81.629 22.9124 81.8189 21.7074C82.053 20.2236 83.2737 19.1308 84.8342 19.1308Z" fill="white"/>
<path d="M54.273 16.2249C54.0604 16.2249 53.9092 16.4325 53.9742 16.6347L56.9146 25.759L54.2559 30.0588C54.1269 30.2676 54.2769 30.5372 54.5222 30.5372H57.6645C57.7544 30.5371 57.8427 30.5139 57.921 30.4697C57.9993 30.4255 58.0648 30.3619 58.1113 30.285L66.3232 16.7003C66.4493 16.4915 66.2987 16.2246 66.0548 16.2246H62.9128C62.822 16.2247 62.7329 16.2484 62.6541 16.2934C62.5753 16.3384 62.5096 16.4031 62.4634 16.4812L59.231 21.9385L57.5902 16.5217C57.5367 16.3454 57.374 16.2246 57.19 16.2246L54.273 16.2249Z" fill="white"/>
<path d="M94.6706 11.4634C94.465 11.4634 94.2899 11.6131 94.2578 11.8162L91.8749 26.9234C91.8661 26.9786 91.8695 27.0351 91.8846 27.0889C91.8998 27.1427 91.9265 27.1926 91.9628 27.2352C91.9991 27.2777 92.0442 27.3118 92.095 27.3352C92.1458 27.3586 92.201 27.3708 92.257 27.3707H95.0822C95.2877 27.3707 95.4628 27.221 95.495 27.0179L97.8772 11.9101C97.8859 11.855 97.8825 11.7986 97.8673 11.7449C97.8521 11.6912 97.8255 11.6414 97.7893 11.599C97.753 11.5566 97.708 11.5225 97.6573 11.4991C97.6067 11.4756 97.5516 11.4635 97.4957 11.4634H94.6706Z" fill="white"/>
</svg>
