<svg width="120" height="20" viewBox="0 0 120 20" fill="none" xmlns="http://www.w3.org/2000/svg">
<path fill-rule="evenodd" clip-rule="evenodd" d="M120 0H0V20H120V0ZM12.6667 6.33333L10.75 2.16667C10.4167 1.5 9.58333 1.5 9.16667 2.08333L7.25 6.25C7.16667 6.5 6.91667 6.75 6.66667 6.75L2.33333 7.41667C1.66667 7.5 1.41667 8.33333 1.83333 8.83333L5 12.0833C5.16667 12.25 5.33333 12.5833 5.25 12.8333L4.5 17.3333C4.33333 18.0833 5.08333 18.5833 5.66667 18.25L9.58333 16.0833C9.83333 15.9167 10.0833 15.9167 10.3333 16.0833L14.25 18.25C14.8333 18.5833 15.5 18 15.4167 17.3333L14.6667 12.8333C14.6667 12.5833 14.75 12.25 14.9167 12.0833L18.0833 8.83333C18.5833 8.33333 18.3333 7.5 17.5833 7.5L13.25 6.83333C13 6.75 12.75 6.58333 12.6667 6.33333ZM35.75 2.16667L37.6667 6.33333C37.75 6.58333 38 6.75 38.25 6.83333L42.5833 7.5C43.3333 7.5 43.5833 8.33333 43.0833 8.83333L39.9167 12.0833C39.75 12.25 39.6667 12.5833 39.6667 12.8333L40.4167 17.3333C40.5 18 39.8333 18.5833 39.25 18.25L35.3333 16.0833C35.0833 15.9167 34.8333 15.9167 34.5833 16.0833L30.6667 18.25C30.0833 18.5833 29.3333 18.0833 29.5 17.3333L30.25 12.8333C30.3333 12.5833 30.1667 12.25 30 12.0833L26.8333 8.83333C26.4167 8.33333 26.6667 7.5 27.3333 7.41667L31.6667 6.75C31.9167 6.75 32.1667 6.5 32.25 6.25L34.1667 2.08333C34.5833 1.5 35.4167 1.5 35.75 2.16667ZM62.6667 6.33333L60.75 2.16667C60.4167 1.5 59.5833 1.5 59.1667 2.08333L57.25 6.25C57.1667 6.5 56.9167 6.75 56.6667 6.75L52.3333 7.41667C51.6667 7.5 51.4167 8.33333 51.8333 8.83333L55 12.0833C55.1667 12.25 55.3333 12.5833 55.25 12.8333L54.5 17.3333C54.3333 18.0833 55.0833 18.5833 55.6667 18.25L59.5833 16.0833C59.8333 15.9167 60.0833 15.9167 60.3333 16.0833L64.25 18.25C64.8333 18.5833 65.5 18 65.4167 17.3333L64.6667 12.8333C64.6667 12.5833 64.75 12.25 64.9167 12.0833L68.0833 8.83333C68.5833 8.33333 68.3333 7.5 67.5833 7.5L63.25 6.83333C63 6.75 62.75 6.58333 62.6667 6.33333ZM85.75 2.16667L87.6667 6.33333C87.75 6.58333 88 6.75 88.25 6.83333L92.5833 7.5C93.3333 7.5 93.5833 8.33333 93.0833 8.83333L89.9167 12.0833C89.75 12.25 89.6667 12.5833 89.6667 12.8333L90.4167 17.3333C90.5 18 89.8333 18.5833 89.25 18.25L85.3333 16.0833C85.0833 15.9167 84.8333 15.9167 84.5833 16.0833L80.6667 18.25C80.0833 18.5833 79.3333 18.0833 79.5 17.3333L80.25 12.8333C80.3333 12.5833 80.1667 12.25 80 12.0833L76.8333 8.83333C76.4167 8.33333 76.6667 7.5 77.3333 7.41667L81.6667 6.75C81.9167 6.75 82.1667 6.5 82.25 6.25L84.1667 2.08333C84.5833 1.5 85.4167 1.5 85.75 2.16667ZM112.667 6.33333L110.75 2.16667C110.417 1.5 109.583 1.5 109.167 2.08333L107.25 6.25C107.167 6.5 106.917 6.75 106.667 6.75L102.333 7.41667C101.667 7.5 101.417 8.33333 101.833 8.83333L105 12.0833C105.167 12.25 105.333 12.5833 105.25 12.8333L104.5 17.3333C104.333 18.0833 105.083 18.5833 105.667 18.25L109.583 16.0833C109.833 15.9167 110.083 15.9167 110.333 16.0833L114.25 18.25C114.833 18.5833 115.5 18 115.417 17.3333L114.667 12.8333C114.667 12.5833 114.75 12.25 114.917 12.0833L118.083 8.83333C118.583 8.33333 118.333 7.5 117.583 7.5L113.25 6.83333C113 6.75 112.75 6.58333 112.667 6.33333Z" fill="#EEEBDB"/>
<path d="M13.0921 7.30768L13.1323 7.32108L13.1742 7.32752L17.5076 7.99419L17.5454 8H17.5836C17.6756 8 17.729 8.02445 17.7591 8.04578C17.7906 8.06815 17.8152 8.10037 17.8298 8.14272C17.8593 8.22784 17.8483 8.36154 17.73 8.47978L17.73 8.47975L17.7255 8.4844L14.5606 11.7325C14.3987 11.8957 14.3053 12.1053 14.2515 12.28C14.1953 12.4627 14.1669 12.6581 14.1669 12.8333V12.8747L14.1737 12.9155L14.9217 17.4035C14.9372 17.5517 14.8706 17.6949 14.767 17.7797C14.6701 17.8589 14.5807 17.863 14.4983 17.8159L14.4983 17.8158L14.4923 17.8125L10.5918 15.6548C10.4059 15.5351 10.1927 15.4583 9.95859 15.4583C9.7245 15.4583 9.51123 15.5351 9.32536 15.6548L5.42489 17.8125L5.42487 17.8124L5.41885 17.8159C5.21433 17.9328 4.91536 17.7702 4.98835 17.4418L4.99125 17.4287L4.99345 17.4155L5.73827 12.9466C5.81104 12.6841 5.75549 12.4291 5.68568 12.2476C5.60992 12.0506 5.49001 11.8668 5.35643 11.7324L2.20818 8.50132C2.12939 8.39816 2.10876 8.25561 2.15168 8.12687C2.19384 8.00039 2.28088 7.92715 2.3956 7.91281L2.40262 7.91193L2.40961 7.91085L6.71282 7.24882C6.98134 7.23502 7.20362 7.10215 7.35557 6.9654C7.5122 6.82444 7.64133 6.63861 7.71435 6.43755L9.59844 2.34169C9.71048 2.20465 9.85385 2.15186 9.9726 2.15596C10.0894 2.15998 10.2148 2.21862 10.2999 2.38409L12.203 6.52116C12.3672 6.97051 12.7862 7.20571 13.0921 7.30768Z" stroke="#367C2E"/>
<path d="M38.0921 7.30768L38.1323 7.32108L38.1742 7.32752L42.5076 7.99419L42.5454 8H42.5836C42.6756 8 42.729 8.02445 42.7591 8.04578C42.7906 8.06815 42.8152 8.10037 42.8298 8.14272C42.8593 8.22784 42.8483 8.36154 42.73 8.47978L42.73 8.47975L42.7255 8.4844L39.5606 11.7325C39.3987 11.8957 39.3053 12.1053 39.2515 12.28C39.1953 12.4627 39.1669 12.6581 39.1669 12.8333V12.8747L39.1737 12.9155L39.9217 17.4035C39.9372 17.5517 39.8706 17.6949 39.767 17.7797C39.6701 17.8589 39.5807 17.863 39.4983 17.8159L39.4983 17.8158L39.4923 17.8125L35.5918 15.6548C35.4059 15.5351 35.1927 15.4583 34.9586 15.4583C34.7245 15.4583 34.5112 15.5351 34.3254 15.6548L30.4249 17.8125L30.4249 17.8124L30.4189 17.8159C30.2143 17.9328 29.9154 17.7702 29.9883 17.4418L29.9912 17.4287L29.9935 17.4155L30.7383 12.9466C30.811 12.6841 30.7555 12.4291 30.6857 12.2476C30.6099 12.0506 30.49 11.8668 30.3564 11.7324L27.2082 8.50132C27.1294 8.39816 27.1088 8.25561 27.1517 8.12687C27.1938 8.00039 27.2809 7.92715 27.3956 7.91281L27.4026 7.91193L27.4096 7.91085L31.7128 7.24882C31.9813 7.23502 32.2036 7.10215 32.3556 6.9654C32.5122 6.82444 32.6413 6.63861 32.7143 6.43755L34.5984 2.34169C34.7105 2.20465 34.8538 2.15186 34.9726 2.15596C35.0894 2.15998 35.2148 2.21862 35.2999 2.38409L37.203 6.52116C37.3672 6.97051 37.7862 7.20571 38.0921 7.30768Z" stroke="#367C2E"/>
<path d="M63.0921 7.30768L63.1323 7.32108L63.1742 7.32752L67.5076 7.99419L67.5454 8H67.5836C67.6756 8 67.729 8.02445 67.7591 8.04578C67.7906 8.06815 67.8152 8.10037 67.8298 8.14272C67.8593 8.22784 67.8483 8.36154 67.73 8.47978L67.73 8.47975L67.7255 8.4844L64.5606 11.7325C64.3987 11.8957 64.3053 12.1053 64.2515 12.28C64.1953 12.4627 64.1669 12.6581 64.1669 12.8333V12.8747L64.1737 12.9155L64.9217 17.4035C64.9372 17.5517 64.8706 17.6949 64.767 17.7797C64.6701 17.8589 64.5807 17.863 64.4983 17.8159L64.4983 17.8158L64.4923 17.8125L60.5918 15.6548C60.4059 15.5351 60.1927 15.4583 59.9586 15.4583C59.7245 15.4583 59.5112 15.5351 59.3254 15.6548L55.4249 17.8125L55.4249 17.8124L55.4189 17.8159C55.2143 17.9328 54.9154 17.7702 54.9883 17.4418L54.9912 17.4287L54.9935 17.4155L55.7383 12.9466C55.811 12.6841 55.7555 12.4291 55.6857 12.2476C55.6099 12.0506 55.49 11.8668 55.3564 11.7324L52.2082 8.50132C52.1294 8.39816 52.1088 8.25561 52.1517 8.12687C52.1938 8.00039 52.2809 7.92715 52.3956 7.91281L52.4026 7.91193L52.4096 7.91085L56.7128 7.24882C56.9813 7.23502 57.2036 7.10215 57.3556 6.9654C57.5122 6.82444 57.6413 6.63861 57.7143 6.43755L59.5984 2.34169C59.7105 2.20465 59.8538 2.15186 59.9726 2.15596C60.0894 2.15998 60.2148 2.21862 60.2999 2.38409L62.203 6.52116C62.3672 6.97051 62.7862 7.20571 63.0921 7.30768Z" stroke="#367C2E"/>
<path d="M88.0921 7.30768L88.1323 7.32108L88.1742 7.32752L92.5076 7.99419L92.5454 8H92.5836C92.6756 8 92.729 8.02445 92.7591 8.04578C92.7906 8.06815 92.8152 8.10037 92.8298 8.14272C92.8593 8.22784 92.8483 8.36154 92.73 8.47978L92.73 8.47975L92.7255 8.4844L89.5606 11.7325C89.3987 11.8957 89.3053 12.1053 89.2515 12.28C89.1953 12.4627 89.1669 12.6581 89.1669 12.8333V12.8747L89.1737 12.9155L89.9217 17.4035C89.9372 17.5517 89.8706 17.6949 89.767 17.7797C89.6701 17.8589 89.5807 17.863 89.4983 17.8159L89.4983 17.8158L89.4923 17.8125L85.5918 15.6548C85.4059 15.5351 85.1927 15.4583 84.9586 15.4583C84.7245 15.4583 84.5112 15.5351 84.3254 15.6548L80.4249 17.8125L80.4249 17.8124L80.4189 17.8159C80.2143 17.9328 79.9154 17.7702 79.9883 17.4418L79.9912 17.4287L79.9935 17.4155L80.7383 12.9466C80.811 12.6841 80.7555 12.4291 80.6857 12.2476C80.6099 12.0506 80.49 11.8668 80.3564 11.7324L77.2082 8.50132C77.1294 8.39816 77.1088 8.25561 77.1517 8.12687C77.1938 8.00039 77.2809 7.92715 77.3956 7.91281L77.4026 7.91193L77.4096 7.91085L81.7128 7.24882C81.9813 7.23502 82.2036 7.10215 82.3556 6.9654C82.5122 6.82444 82.6413 6.63861 82.7143 6.43755L84.5984 2.34169C84.7105 2.20465 84.8538 2.15186 84.9726 2.15596C85.0894 2.15998 85.2148 2.21862 85.2999 2.38409L87.203 6.52116C87.3672 6.97051 87.7862 7.20571 88.0921 7.30768Z" stroke="#367C2E"/>
<path d="M113.092 7.30768L113.132 7.32108L113.174 7.32752L117.508 7.99419L117.545 8H117.584C117.676 8 117.729 8.02445 117.759 8.04578C117.791 8.06815 117.815 8.10037 117.83 8.14272C117.859 8.22784 117.848 8.36154 117.73 8.47978L117.73 8.47975L117.725 8.4844L114.561 11.7325C114.399 11.8957 114.305 12.1053 114.252 12.28C114.195 12.4627 114.167 12.6581 114.167 12.8333V12.8747L114.174 12.9155L114.922 17.4035C114.937 17.5517 114.871 17.6949 114.767 17.7797C114.67 17.8589 114.581 17.863 114.498 17.8159L114.498 17.8158L114.492 17.8125L110.592 15.6548C110.406 15.5351 110.193 15.4583 109.959 15.4583C109.724 15.4583 109.511 15.5351 109.325 15.6548L105.425 17.8125L105.425 17.8124L105.419 17.8159C105.214 17.9328 104.915 17.7702 104.988 17.4418L104.991 17.4287L104.993 17.4155L105.738 12.9466C105.811 12.6841 105.755 12.4291 105.686 12.2476C105.61 12.0506 105.49 11.8668 105.356 11.7324L102.208 8.50132C102.129 8.39816 102.109 8.25561 102.152 8.12687C102.194 8.00039 102.281 7.92715 102.396 7.91281L102.403 7.91193L102.41 7.91085L106.713 7.24882C106.981 7.23502 107.204 7.10215 107.356 6.9654C107.512 6.82444 107.641 6.63861 107.714 6.43755L109.598 2.34169C109.71 2.20465 109.854 2.15186 109.973 2.15596C110.089 2.15998 110.215 2.21862 110.3 2.38409L112.203 6.52116C112.367 6.97051 112.786 7.20571 113.092 7.30768Z" stroke="#367C2E"/>
</svg>
