<svg xmlns="http://www.w3.org/2000/svg" width="11" height="6" viewBox="0 0 11 6" fill="none">
  <path d="M5.58471 4.75305C5.64718 4.67885 5.68233 4.632 5.72528 4.58904C7.11149 3.20284 8.49769 1.81273 9.8878 0.430427C9.97371 0.344522 10.0909 0.274236 10.208 0.242997C10.3876 0.192235 10.5829 0.301569 10.6766 0.46557C10.7703 0.629572 10.7586 0.836526 10.6375 0.988814C10.6024 1.03567 10.5594 1.07472 10.5165 1.11767C9.00922 2.62493 7.50197 4.13218 5.99471 5.64334C5.70185 5.9362 5.46756 5.9362 5.17861 5.64725C3.65574 4.12437 2.13677 2.6015 0.613892 1.08253C0.469414 0.938052 0.387413 0.777955 0.44989 0.571001C0.543605 0.254711 0.918466 0.133662 1.18009 0.332807C1.22695 0.367951 1.26599 0.410904 1.30895 0.453856C2.69125 1.83616 4.07745 3.22236 5.45975 4.60466C5.4988 4.63981 5.53004 4.68666 5.58471 4.75305Z" fill="#214336"/>
</svg>
