<svg width="149" height="42" viewBox="0 0 149 42" fill="none" xmlns="http://www.w3.org/2000/svg">
<rect width="149" height="42" rx="5" fill="#5A31F4"/>
<mask id="mask0_155_2728" style="mask-type:luminance" maskUnits="userSpaceOnUse" x="27" y="9" width="95" height="24">
<path d="M122 9.60254H27V32.3973H122V9.60254Z" fill="white"/>
</mask>
<g mask="url(#mask0_155_2728)">
<path d="M51.3377 16.7689C50.5759 15.172 49.1314 14.1404 46.9547 14.1404C46.2866 14.1521 45.6301 14.3169 45.0358 14.6221C44.4416 14.9274 43.9254 15.3649 43.5272 15.901L43.4477 15.9977V9.73892C43.4477 9.70275 43.4334 9.66806 43.4078 9.64249C43.3822 9.61691 43.3474 9.60254 43.3112 9.60254H40.2336C40.1979 9.60319 40.1638 9.61784 40.1387 9.64335C40.1136 9.66886 40.0996 9.70318 40.0996 9.73892V27.6921C40.0996 27.7276 40.1138 27.7617 40.1389 27.7868C40.164 27.8119 40.1981 27.826 40.2336 27.826H43.5296C43.5654 27.826 43.5998 27.812 43.6253 27.7869C43.6508 27.7619 43.6655 27.7279 43.6661 27.6921V20.0372C43.6661 18.5494 44.6589 17.4955 46.2473 17.4955C47.9847 17.4955 48.424 18.9238 48.424 20.3794V27.6921C48.424 27.7276 48.4381 27.7617 48.4632 27.7868C48.4884 27.8119 48.5225 27.826 48.558 27.826H51.8465C51.8824 27.826 51.9167 27.812 51.9422 27.7869C51.9677 27.7619 51.9825 27.7279 51.9831 27.6921V19.943C51.9831 19.6776 51.9831 19.4173 51.9484 19.1644C51.8918 18.3355 51.685 17.5238 51.3377 16.7689Z" fill="white"/>
<path d="M34.8802 19.4297C34.8802 19.4297 33.2024 19.0354 32.5844 18.8767C31.9664 18.718 30.8868 18.3808 30.8868 17.5649C30.8868 16.7491 31.7579 16.4887 32.6415 16.4887C33.5251 16.4887 34.5079 16.702 34.5849 17.6815C34.588 17.7168 34.6042 17.7496 34.6304 17.7735C34.6566 17.7974 34.6908 17.8105 34.7263 17.8104L37.9752 17.798C37.9943 17.7981 38.0132 17.7942 38.0307 17.7866C38.0483 17.779 38.0641 17.7679 38.0771 17.7539C38.0902 17.74 38.1002 17.7234 38.1065 17.7054C38.1129 17.6874 38.1155 17.6683 38.1141 17.6492C37.9131 14.5149 35.1606 13.394 32.6216 13.394C29.6111 13.394 27.4096 15.3778 27.4096 17.5649C27.4096 19.1619 27.8613 20.6596 31.4129 21.7011C32.0359 21.8821 32.8823 22.1177 33.6219 22.3235C34.5104 22.5715 34.9894 22.9459 34.9894 23.5361C34.9894 24.2205 33.9966 24.6966 33.0212 24.6966C31.609 24.6966 30.6063 24.1734 30.5244 23.2336C30.5201 23.1992 30.5034 23.1675 30.4773 23.1447C30.4512 23.1218 30.4176 23.1093 30.3829 23.1096L27.1416 23.1245C27.1226 23.1245 27.1037 23.1283 27.0862 23.1357C27.0688 23.1431 27.0529 23.1539 27.0397 23.1676C27.0265 23.1812 27.0162 23.1974 27.0094 23.2151C27.0026 23.2329 26.9994 23.2518 27.0001 23.2708C27.149 26.2291 30.0082 27.8235 32.6738 27.8235C36.6449 27.8235 38.4393 25.5918 38.4393 23.5014C38.4443 22.5194 38.2184 20.2827 34.8802 19.4297Z" fill="white"/>
<path d="M76.6754 14.1353C75.0252 14.1353 73.6426 15.0478 72.7515 16.1489V14.2642C72.7515 14.2292 72.7377 14.1955 72.713 14.1704C72.6888 14.1454 72.6552 14.131 72.6199 14.1304H69.5376C69.5021 14.1304 69.4678 14.1444 69.4427 14.1696C69.4176 14.1947 69.4033 14.2288 69.4033 14.2642V31.8703C69.4042 31.9052 69.4187 31.9389 69.4438 31.9633C69.4689 31.9879 69.5026 32.0018 69.5376 32.0018H72.836C72.8708 32.0018 72.9043 31.9879 72.9289 31.9633C72.9536 31.9387 72.9674 31.905 72.9674 31.8703V26.0826H73.0171C73.5407 26.881 74.9728 27.8382 76.8444 27.8382C80.3634 27.8382 83.2973 24.9221 83.2973 20.9818C83.2999 17.2003 80.381 14.1353 76.6754 14.1353ZM76.3702 24.4832C75.6757 24.5004 74.9911 24.3104 74.4051 23.9375C73.819 23.5645 73.3571 23.0255 73.0788 22.3893C72.8006 21.753 72.7183 21.0483 72.8429 20.3651C72.967 19.682 73.2924 19.0513 73.777 18.5537C74.2618 18.056 74.8839 17.714 75.5641 17.5711C76.2441 17.4283 76.9514 17.4912 77.5955 17.7517C78.2398 18.0123 78.7915 18.4587 79.1808 19.034C79.5699 19.6094 79.7785 20.2874 79.7805 20.9818C79.7875 21.4357 79.7048 21.8865 79.5373 22.3085C79.3698 22.7304 79.1203 23.1151 78.8034 23.4404C78.4867 23.7657 78.1087 24.0253 77.6908 24.2043C77.2733 24.3832 76.8246 24.478 76.3702 24.4832Z" fill="white"/>
<path d="M59.6429 13.3618C56.5678 13.3618 55.034 14.4058 53.8027 15.2415L53.7656 15.2662C53.7022 15.3096 53.6575 15.3754 53.6403 15.4504C53.6234 15.5253 53.6353 15.6039 53.6738 15.6704L54.8898 17.7633C54.9127 17.8025 54.944 17.8361 54.9812 17.8618C55.0186 17.8876 55.0611 17.9047 55.1059 17.9121C55.1497 17.92 55.1946 17.9181 55.2375 17.9065C55.2804 17.8949 55.3203 17.874 55.3542 17.8451L55.4508 17.7658C56.0837 17.2351 57.0988 16.5259 59.556 16.3325C60.9235 16.2234 62.105 16.5805 62.976 17.3938C63.9341 18.2766 64.5076 19.7025 64.5076 21.2077C64.5076 23.9775 62.8743 25.7182 60.2509 25.753C58.0891 25.7406 56.6371 24.6148 56.6371 22.9509C56.6371 22.0681 57.0367 21.4928 57.8162 20.9175C57.8756 20.875 57.9176 20.8124 57.9346 20.7413C57.9515 20.6702 57.9421 20.5954 57.908 20.5307L56.8158 18.4675C56.7958 18.4306 56.7685 18.398 56.7357 18.3717C56.7029 18.3453 56.6653 18.3256 56.6248 18.3138C56.5834 18.3015 56.5401 18.298 56.4974 18.3036C56.4545 18.3091 56.4133 18.3236 56.3766 18.3461C55.1506 19.0726 53.6465 20.4017 53.7284 22.9559C53.8276 26.2068 56.533 28.689 60.0498 28.7906H60.2261H60.4668C64.6462 28.6542 67.6643 25.5546 67.6643 21.3515C67.6643 17.493 64.8498 13.3618 59.6429 13.3618Z" fill="white"/>
<path d="M96.2954 15.3457H94.2004C94.1515 15.3463 94.1044 15.3662 94.0697 15.4009C94.0347 15.4356 94.0149 15.4825 94.0146 15.5317V19.9232C94.0149 19.9722 94.0349 20.0188 94.0699 20.0531C94.1047 20.0875 94.1515 20.1068 94.2004 20.1068H96.2954C97.571 20.1068 98.5118 19.1025 98.5118 17.7262C98.5118 16.35 97.571 15.3457 96.2954 15.3457Z" fill="white"/>
<path d="M102.731 23.1144C102.731 23.7517 103.27 24.1063 104.208 24.1063C105.484 24.1063 106.238 23.4169 106.238 22.1944V21.8423L104.327 21.9415C103.319 21.991 102.731 22.4102 102.731 23.1144Z" fill="white"/>
<path d="M118.243 9.64211H90.0981C89.6367 9.64211 89.1792 9.73302 88.7529 9.90963C88.3262 10.0862 87.9387 10.3451 87.6125 10.6714C87.286 10.9977 87.0272 11.3851 86.8507 11.8114C86.674 12.2377 86.5835 12.6946 86.584 13.1559V28.55C86.584 29.4815 86.9541 30.3748 87.6132 31.0337C88.2723 31.6926 89.1662 32.0631 90.0981 32.0637H118.243C118.706 32.065 119.164 31.9753 119.591 31.7997C120.019 31.624 120.407 31.3657 120.735 31.0399C121.062 30.714 121.322 30.3268 121.5 29.9004C121.678 29.474 121.769 29.0168 121.77 28.5549V13.1608C121.771 12.6981 121.681 12.2396 121.504 11.812C121.327 11.3843 121.067 10.9958 120.739 10.6688C120.411 10.3418 120.022 10.0827 119.594 9.90653C119.166 9.73034 118.707 9.64048 118.243 9.64211ZM96.4022 21.8349H94.1884C94.1391 21.8349 94.092 21.8545 94.0568 21.8894C94.022 21.9243 94.0022 21.9716 94.0022 22.0209V25.1701C94.0022 25.2194 93.9826 25.2668 93.9479 25.3016C93.9129 25.3365 93.8656 25.3561 93.8163 25.3561H92.2574C92.2085 25.3555 92.1612 25.3357 92.1264 25.3009C92.0917 25.2662 92.0723 25.2193 92.0714 25.1701V13.8105C92.0714 13.7612 92.091 13.7139 92.1262 13.679C92.161 13.6441 92.2081 13.6246 92.2574 13.6246H96.4022C98.7502 13.6246 100.43 15.3331 100.43 17.731C100.43 20.1289 98.7626 21.8399 96.415 21.8399L96.4022 21.8349ZM108.067 25.1677C108.068 25.1923 108.063 25.2167 108.054 25.2396C108.045 25.2624 108.031 25.2832 108.014 25.3008C107.996 25.3183 107.976 25.3322 107.953 25.3417C107.93 25.3512 107.906 25.3561 107.881 25.3561H106.409C106.385 25.3561 106.36 25.3512 106.338 25.3417C106.315 25.3322 106.294 25.3183 106.277 25.3008C106.26 25.2832 106.246 25.2624 106.237 25.2396C106.228 25.2167 106.223 25.1923 106.223 25.1677V24.8279C106.226 24.7981 106.219 24.7683 106.203 24.743C106.187 24.7176 106.163 24.698 106.135 24.6871C106.108 24.6763 106.077 24.6747 106.048 24.6827C106.019 24.6906 105.994 24.7076 105.975 24.7312C105.536 25.2098 104.821 25.557 103.682 25.557C102.004 25.557 100.894 24.6841 100.894 23.1764C100.878 22.8088 100.954 22.443 101.116 22.1121C101.277 21.7813 101.518 21.4959 101.818 21.2819C102.423 20.8281 103.362 20.5926 104.754 20.538L106.231 20.4884V20.0569C106.231 19.1865 105.645 18.8171 104.704 18.8171C103.764 18.8171 103.17 19.1494 103.032 19.6924C103.021 19.7308 102.997 19.7643 102.964 19.7877C102.932 19.8111 102.893 19.8229 102.853 19.8214H101.396C101.369 19.822 101.343 19.8168 101.318 19.8061C101.294 19.7954 101.271 19.7794 101.254 19.7593C101.236 19.7392 101.223 19.7155 101.215 19.6898C101.208 19.6641 101.206 19.6371 101.21 19.6106C101.428 18.3211 102.495 17.3416 104.772 17.3416C107.189 17.3416 108.06 18.465 108.06 20.6099L108.067 25.1677ZM117.236 17.7979L113.96 26.529C113.215 28.5574 111.912 29.0782 110.485 29.0782C110.216 29.0847 109.948 29.0521 109.688 28.9815C109.648 28.9706 109.612 28.9468 109.586 28.9136C109.561 28.8804 109.547 28.8398 109.547 28.798V27.4713C109.547 27.4436 109.553 27.4161 109.564 27.391C109.576 27.3658 109.593 27.3435 109.614 27.3258C109.636 27.308 109.661 27.2952 109.688 27.2882C109.715 27.2812 109.743 27.2802 109.77 27.2853C109.995 27.328 110.224 27.3496 110.453 27.3498C110.847 27.3696 111.237 27.2564 111.56 27.0285C111.882 26.8005 112.119 26.471 112.232 26.0926L112.329 25.7876C112.344 25.7468 112.344 25.702 112.329 25.6611L109.266 17.8004C109.257 17.7723 109.254 17.7424 109.259 17.7131C109.263 17.6838 109.274 17.6559 109.291 17.6318C109.309 17.6076 109.331 17.5879 109.357 17.5741C109.384 17.5603 109.413 17.5528 109.442 17.5524H110.932C110.97 17.5528 111.007 17.5645 111.038 17.5862C111.07 17.6078 111.094 17.6384 111.108 17.6739L113.188 23.2186C113.202 23.2548 113.226 23.286 113.258 23.308C113.29 23.3301 113.327 23.3418 113.366 23.3418C113.405 23.3418 113.443 23.3301 113.475 23.308C113.507 23.286 113.531 23.2548 113.545 23.2186L115.35 17.6888C115.361 17.6511 115.385 17.6183 115.418 17.5951C115.45 17.5719 115.488 17.5595 115.528 17.5599H117.055C117.084 17.5597 117.113 17.5666 117.14 17.5797C117.166 17.5929 117.189 17.6121 117.206 17.6357C117.224 17.6594 117.236 17.6868 117.241 17.7158C117.246 17.7448 117.244 17.7747 117.236 17.8029V17.7979Z" fill="white"/>
</g>
</svg>
