<svg width="68" height="12" viewBox="0 0 68 12" fill="none" xmlns="http://www.w3.org/2000/svg">
<path d="M6 0L7.62229 3.76711L11.7063 4.1459L8.62492 6.85289L9.52671 10.8541L6 8.76L2.47329 10.8541L3.37508 6.85289L0.293661 4.1459L4.37771 3.76711L6 0Z" fill="#D1D3D5"/>
<path d="M20 0L21.6223 3.76711L25.7063 4.1459L22.6249 6.85289L23.5267 10.8541L20 8.76L16.4733 10.8541L17.3751 6.85289L14.2937 4.1459L18.3777 3.76711L20 0Z" fill="#D1D3D5"/>
<path d="M34 0L35.6223 3.76711L39.7063 4.1459L36.6249 6.85289L37.5267 10.8541L34 8.76L30.4733 10.8541L31.3751 6.85289L28.2937 4.1459L32.3777 3.76711L34 0Z" fill="#D1D3D5"/>
<path d="M48 0L49.6223 3.76711L53.7063 4.1459L50.6249 6.85289L51.5267 10.8541L48 8.76L44.4733 10.8541L45.3751 6.85289L42.2937 4.1459L46.3777 3.76711L48 0Z" fill="#D1D3D5"/>
<path d="M62 0L63.6223 3.76711L67.7063 4.1459L64.6249 6.85289L65.5267 10.8541L62 8.76L58.4733 10.8541L59.3751 6.85289L56.2937 4.1459L60.3777 3.76711L62 0Z" fill="#D1D3D5"/>
</svg>
