<svg width="17" height="16" viewBox="0 0 17 16" fill="none" xmlns="http://www.w3.org/2000/svg">
<g id="Yvq6e3.tif">
<g id="Group">
<path id="Vector" d="M8.48717 15.0692C6.2176 13.4524 4.09225 11.6914 2.35782 9.50537C1.60635 8.55655 0.964954 7.54321 0.649947 6.3515C-0.0142244 3.85801 1.59497 1.34934 4.15298 0.984993C5.90639 0.734506 7.31443 1.39488 8.34675 2.83708C8.39609 2.9054 8.43783 2.97371 8.49856 3.06859C8.54031 3.00787 8.57446 2.95853 8.60483 2.91299C9.56882 1.41386 11.2805 0.715529 12.8745 0.988789C14.6924 1.3038 16.0246 2.579 16.4041 4.32103C16.6356 5.39509 16.4307 6.41222 15.9752 7.3914C15.4629 8.49583 14.738 9.45603 13.9334 10.3593C12.347 12.1317 10.5328 13.646 8.58964 15.0085C8.55928 15.0237 8.53271 15.0389 8.48717 15.0692ZM7.94065 5.21292C7.92547 5.07629 7.91409 4.96243 7.8989 4.85237C7.65221 2.56382 5.03348 1.32277 3.0903 2.57521C1.80371 3.40258 1.32171 4.95484 1.87961 6.47295C2.23637 7.44454 2.82084 8.28329 3.47363 9.07271C4.63118 10.477 5.97471 11.6914 7.39413 12.8224C7.75848 13.1109 8.13042 13.3917 8.49856 13.6764C10.3165 12.3177 12.0244 10.8717 13.4704 9.13723C14.0738 8.41233 14.6165 7.64569 14.9961 6.77657C15.2845 6.11619 15.4325 5.43684 15.3187 4.71195C15.0871 3.23559 13.8385 2.14635 12.2938 2.07423C10.8858 2.00972 9.53467 3.01926 9.18171 4.41212C9.11719 4.6702 9.08682 4.93966 9.04128 5.21292C8.67693 5.21292 8.31259 5.21292 7.94065 5.21292Z" fill="black"/>
</g>
</g>
</svg>
